<svg id="9e0d31c2-9c4e-4524-87af-636d7d6855b3" data-name="Layer 1" xmlns="http://www.w3.org/2000/svg" width="0.57in" height="0.544in" viewBox="0 0 41.059 39.138"><title>ajstar</title><path d="M32.373,13.255a.284.284,0,0,0-.1-.2.554.554,0,0,0-.253-.34.913.913,0,0,0-.422-.087c-.028.027-.07.065-.126.113a1.611,1.611,0,0,0-.155.154c-.047.053-.09.1-.126.147a.19.19,0,0,0-.057.106v4.883a.3.3,0,0,1-.111-.013.539.539,0,0,1-.112-.107,1.312,1.312,0,0,0-.132-.533,3.654,3.654,0,0,1-.2-.547q-.1-.4-.188-.754a5.18,5.18,0,0,0-.272-.767.421.421,0,0,1-.1-.094.292.292,0,0,1-.015-.12c-.064-.213-.123-.407-.174-.58a4.262,4.262,0,0,0-.174-.487c0-.062-.016-.1-.049-.12a.1.1,0,0,1-.049-.094,2.611,2.611,0,0,0-.029-.38.374.374,0,0,0-.2-.287v-.093a.4.4,0,0,0-.164-.2.91.91,0,0,0-.263-.12,1.285,1.285,0,0,0-.285-.047.5.5,0,0,0-.227.033.1.1,0,0,0-.086.067.119.119,0,0,0-.013.054.328.328,0,0,0-.114.146.2.2,0,0,0-.014.067.108.108,0,0,0-.1.093,2.548,2.548,0,0,1-.049.5.774.774,0,0,0,.049.473v.667a.2.2,0,0,1,.042.054c.01.026,0,.04-.042.04a1.388,1.388,0,0,0-.049.634,3.587,3.587,0,0,1,.049.553V16.4a.141.141,0,0,1,.035.16.4.4,0,0,0-.035.16v2.5q0,.64.035,1.221a6.266,6.266,0,0,1-.035,1.154v.12a.41.41,0,0,0,.065.247,1.362,1.362,0,0,0,.168.18c0,.026.027.053.08.08a.889.889,0,0,0,.2.066,2.3,2.3,0,0,0,.292.067.119.119,0,0,0,.054-.013.1.1,0,0,0,.069-.107.614.614,0,0,0,.287-.287.545.545,0,0,0,.054-.447V20.3a2.46,2.46,0,0,0-.05-.486.826.826,0,0,1,.05-.487V18.245a1.194,1.194,0,0,0,.035-.494,3.37,3.37,0,0,1-.035-.48q-.2-.16,0-.32h.1l.173.427c.051.124.109.267.174.427a.9.9,0,0,0,.062.333,2.026,2.026,0,0,0,.159.32v.107a4.159,4.159,0,0,1,.126.42.659.659,0,0,0,.221.341v.106a1.91,1.91,0,0,0,.324,1.094.577.577,0,0,0,.105.32.3.3,0,0,1,.022.321l.112.12a.594.594,0,0,0,.056.2.6.6,0,0,1,.056.227.443.443,0,0,0,.141.307.876.876,0,0,0,.31.213.222.222,0,0,0,.239.047.757.757,0,0,1,.225-.047.445.445,0,0,0,.309-.133.4.4,0,0,0,.141-.294V21.38a1.256,1.256,0,0,0-.042-.32.422.422,0,0,1,.042-.32V18.792a.962.962,0,0,1-.057-.44.962.962,0,0,0-.056-.441h.113V15a.793.793,0,0,0-.042-.274.328.328,0,0,1,.042-.273v-.974C32.387,13.42,32.382,13.344,32.373,13.255Zm-2.89,2.188a.134.134,0,0,1,.063-.013.115.115,0,0,1-.013.053.1.1,0,0,1-.1.054l.113.106-.119-.106-.092-.107c0-.036.014-.049.042-.04a.216.216,0,0,1,.056.04v.107A.1.1,0,0,1,29.483,15.443Zm-.148-.227q0-.093-.063-.06c-.043.023-.064,0-.064-.06h.211Zm0-.547h-.127v-.106a.135.135,0,0,1,.057.013C29.311,14.6,29.335,14.634,29.335,14.669Zm-.127-.333v.12l-.126-.12Zm-.225,0h-.112v-.094Zm-.26.44c.033-.009.049-.044.049-.107a.181.181,0,0,1-.042-.053c-.019-.036,0-.053.042-.053v.226a.09.09,0,0,1,.084.054.1.1,0,0,1,.015.04.152.152,0,0,1-.085-.014c-.009-.008-.014-.035-.014-.08C28.707,14.789,28.69,14.785,28.723,14.776Zm-.091,1.948v-.107a.157.157,0,0,1,.059.013c.05.027.075.058.075.094Zm0,1.414v-.107a.248.248,0,0,1,.042.054C28.692,18.12,28.678,18.138,28.632,18.138Zm.154-2.842c-.009-.008-.014-.035-.014-.08h.1v.094A.152.152,0,0,1,28.786,15.3Zm-.154-1.481a.086.086,0,0,1-.057.081.126.126,0,0,1-.042.013v-.094Zm-.113-.32a.137.137,0,0,1,.014.08c0-.026-.023-.053-.07-.08a.147.147,0,0,0-.056-.013A.259.259,0,0,1,28.519,13.5Zm.014,1.388V15l-.13-.12Zm-.126.76h.126v.107a.117.117,0,0,0-.014-.053A.114.114,0,0,0,28.407,15.643Zm.126,4.216v-.093c.047,0,.075,0,.084.013a.135.135,0,0,1,.015.08Zm.084-.267a.09.09,0,0,1-.084.054v-.107h.1A.115.115,0,0,1,28.617,19.592Zm.127-.213a.114.114,0,0,0-.112-.053.057.057,0,0,1-.042-.014q-.03-.027.042-.093h.126l.014.213h-.014A.12.12,0,0,0,28.744,19.379Zm.042,1.014a.09.09,0,0,1,.028-.027c.038-.018.057,0,.057.04A.157.157,0,0,1,28.786,20.393ZM29.1,16.51a.09.09,0,0,0-.084.054.12.12,0,0,0-.014.053h-.126a.094.094,0,0,1,.056-.093A.162.162,0,0,1,29,16.51V16.4h.1Zm.465,0h-.352a.1.1,0,0,1,.057-.093.159.159,0,0,1,.07-.013.223.223,0,0,1,.092.013.911.911,0,0,1,.119.093l.014-.106ZM29.546,15.1c0-.026-.024-.053-.071-.08A.124.124,0,0,0,29.419,15h.141Zm.225.334a.186.186,0,0,1-.013.093c-.008.009-.042.014-.1.014V15.43Zm.046.68a.086.086,0,0,1-.04-.04h.092C29.869,16.115,29.852,16.128,29.817,16.11ZM30,16.3V16.4l-.127-.107Zm.112.974a.13.13,0,0,1-.056-.013A.1.1,0,0,1,30,17.164h.112Zm.422.707a.586.586,0,0,1,.043-.067v.12C30.526,18.031,30.511,18.014,30.53,17.978Zm-.084-.494c0,.054-.005.067-.014.041s-.038-.041-.085-.041Zm-.113-.266a.116.116,0,0,1-.112.053v-.107q0-.08-.042-.093c-.029-.009-.014-.014.042-.014v.107h.126A.109.109,0,0,1,30.333,17.218Zm.014,1.347c.047,0,.061.018.043.053a.226.226,0,0,1-.043.054Zm.31-.013a.153.153,0,0,1-.084.013.113.113,0,0,1-.014.053.116.116,0,0,1-.113.054v-.107a.117.117,0,0,0,.113-.053.121.121,0,0,0,.014-.054h.1A.175.175,0,0,1,30.657,18.552Zm.014,1.094v-.107l.127.107Zm1.266-3.029-.113-.107v.214a.113.113,0,0,1-.112-.054.115.115,0,0,1-.015-.053V16.51h.127V16.4l.113.106q.084,0,.084.054C32.021,16.6,31.993,16.617,31.937,16.617Zm-.113,3.029v.12a.115.115,0,0,1-.112-.053.151.151,0,0,1-.015-.067Zm-.127.76h.127v.12H31.7Zm.127-4.869.113.106h-.113Zm0,.32a.143.143,0,0,1-.014.066.115.115,0,0,1-.113.054.122.122,0,0,1,.015-.054A.109.109,0,0,1,31.824,15.857Zm0-1.294a.124.124,0,0,1,.056.013.1.1,0,0,1,.057.093h-.113Zm-.127-1.2c.066,0,.082.005.05.013s-.05.045-.05.107Zm-.034,2.8c.042-.04.1-.029.161.033L31.7,16.3h-.1A.186.186,0,0,1,31.663,16.157ZM31.6,17.164c.038-.044.066-.04.085.014a.286.286,0,0,1,.013.093.227.227,0,0,1-.069-.013.386.386,0,0,1-.155-.094Zm-.014.267a.117.117,0,0,0,.014-.053v.106h-.126A.114.114,0,0,0,31.585,17.431Zm-.337,1.027a.1.1,0,0,1,.1.054.117.117,0,0,1,.014.053h-.112Zm.112.547v-.12c.047,0,.061.023.042.067a.181.181,0,0,1-.042.053v.107h-.112v-.107Zm0,.641v.12h-.112a.112.112,0,0,1,.013-.053A.1.1,0,0,1,31.36,19.646Zm-.112.333a.087.087,0,0,1-.056.08.136.136,0,0,1-.057.014v-.094c.057-.062.089-.093.1-.093s.014.031.014.093l.112.094a.558.558,0,0,1,.042.066q.028.054-.042.054a.44.44,0,0,1-.056-.067A.256.256,0,0,1,31.248,19.979Zm.225,1.188H31.36v-.121h.113Zm0-.427H31.36a.121.121,0,0,1,.014-.054.1.1,0,0,1,.1-.066Zm-.1-2.4a.173.173,0,0,1-.014-.093.124.124,0,0,1,.056.013.1.1,0,0,1,.057.094A.191.191,0,0,1,31.374,18.338Zm.042-.147a.037.037,0,0,0-.042,0h0a.1.1,0,0,1,.1-.053C31.473,18.191,31.454,18.209,31.416,18.191Zm.071-.24a.049.049,0,0,1-.014-.04H31.6C31.543,17.965,31.506,17.978,31.487,17.951ZM31.6,20.62h.1a.144.144,0,0,1-.013.066.091.091,0,0,1-.085.054Zm.225,1.094v.093c-.065,0-.082,0-.049-.013s.049-.036.049-.08a.588.588,0,0,1-.147-.014c-.033-.008-.026-.044.02-.106h.127Zm.225-1.094h-.112a.135.135,0,0,1,.014-.08.189.189,0,0,1,.1-.014Zm0-.761h-.112a.137.137,0,0,1,.014-.08.194.194,0,0,1,.1-.013Z"/><path d="M11.8,24.856a2.187,2.187,0,0,0,.42.214,1.235,1.235,0,0,0,.4.06c.223-.014.245-.068.349-.067s.165-.118.241-.237.018-.294.01-.4-.1-.176-.133-.247-.245-.159-.245-.159h0a1.334,1.334,0,0,1-.348-.169.889.889,0,0,1-.141-.126,2.28,2.28,0,0,1-.267-.354l-.014-.013a2.988,2.988,0,0,1-.19-.407l-.148-.394a.458.458,0,0,0-.021-.267c-.032-.08-.072-.182-.119-.306a.439.439,0,0,1-.078-.194c-.023-.1-.047-.211-.07-.327a3.1,3.1,0,0,1-.049-.32c-.01-.1-.014-.156-.014-.174v-.133c-.075-.169-.136-.313-.183-.434a1.1,1.1,0,0,1-.07-.406q-.085-.507-.218-1.034T10.7,17.925q-.085-.414-.169-.828c-.056-.275-.118-.573-.183-.893v-.441a1.863,1.863,0,0,1-.127-.433,3.067,3.067,0,0,0-.1-.434v-.107c0-.1,0-.18-.007-.247a.374.374,0,0,0-.077-.193.254.254,0,0,1-.127-.207,2.215,2.215,0,0,1-.014-.233,1.518,1.518,0,0,0-.056-.42,1.435,1.435,0,0,1-.057-.407.974.974,0,0,1-.112-.167c-.019-.04-.061-.06-.127-.06a.253.253,0,0,0-.168-.107,2.248,2.248,0,0,0-.282-.013c0-.107-.079-.107-.239,0a.844.844,0,0,0-.387.3.542.542,0,0,0-.077.474.117.117,0,0,1-.014.053.1.1,0,0,1-.084.04,1.191,1.191,0,0,0-.078.387c-.005.133-.007.253-.007.36v.36a.246.246,0,0,0-.126.194,1.878,1.878,0,0,0-.014.22c-.047.222-.1.456-.162.7s-.115.474-.162.687v.2a2.224,2.224,0,0,1-.077.561q-.078.294-.162.547a1.082,1.082,0,0,0-.112.353c-.02.13-.033.263-.043.4s-.016.271-.021.4a1.652,1.652,0,0,1-.049.354,3.315,3.315,0,0,0-.1.487.861.861,0,0,1-.126.38A1.442,1.442,0,0,1,7,20.606a1.237,1.237,0,0,0-.057.36,1.375,1.375,0,0,0-.112.467c-.01.161-.014.321-.014.481a.261.261,0,0,0,.077.167,1.287,1.287,0,0,0,.162.153.725.725,0,0,0,.288.053.888.888,0,0,0,.309-.053.749.749,0,0,0,.268-.167.491.491,0,0,0,.148-.273.231.231,0,0,1,.07-.147.273.273,0,0,0,.07-.187.776.776,0,0,0-.056-.287.149.149,0,0,1,.056-.207.634.634,0,0,0,.077-.133.387.387,0,0,0,.008-.093v-.107a1.069,1.069,0,0,1,.372-.347.965.965,0,0,1,.429-.093,1.174,1.174,0,0,1,.542.106,1.132,1.132,0,0,1,.4.441c.027.106.065.264.112.473a4.815,4.815,0,0,1,.1.661,1.012,1.012,0,0,0,.028.127c.009.031.018.064.028.1q.112.386.232.767a7.686,7.686,0,0,0,.274.74,2.284,2.284,0,0,0,.127.254,1.3,1.3,0,0,0,.112.16.62.62,0,0,0,.113.107,1.054,1.054,0,0,1,.077.146.843.843,0,0,0,.092.16A2.1,2.1,0,0,0,11.8,24.856Zm.731-.594c-.014.018-.007.044.021.08l-.056-.067C12.534,24.249,12.546,24.244,12.532,24.262Zm-.457.28-.085-.067.127-.04Zm.211-.013c.028.017.042.031.042.04s-.024.031-.07.066a.179.179,0,0,1-.042-.066C12.216,24.56,12.239,24.546,12.286,24.529Zm-.253-.347.084.093a.129.129,0,0,1-.056.014.112.112,0,0,1-.1-.04Zm-.211.013.07.12-.112.04ZM7.5,20.3H7.392a.2.2,0,0,0,.1-.013.173.173,0,0,0,.014-.093Zm.07-.173c-.047.027-.07.013-.07-.04h.112v-.093a.086.086,0,0,0,.057.08.159.159,0,0,0,.07.013A.333.333,0,0,0,7.574,20.126ZM10.3,18.472a.057.057,0,0,1,.042-.014v.134Q10.261,18.511,10.3,18.472Zm-.521-3.029a.118.118,0,0,1,.1.067.117.117,0,0,1,.014.053H9.782Zm0,1.721v-.093a.107.107,0,0,0,.015.053c.009.027.042.04.1.04Zm.113.214a.173.173,0,0,1-.014.093.2.2,0,0,1-.1.013v-.106H9.9ZM9.881,16.27a.119.119,0,0,0-.1-.066H9.9v.12A.121.121,0,0,0,9.881,16.27Zm-.141-.327q-.042-.06.042-.06v.2A.24.24,0,0,0,9.74,15.943Zm.042-.273c-.047.045-.079.058-.1.04a.054.054,0,0,1-.014-.04Zm-.337-1.761h.1a.25.25,0,0,1-.014.08.853.853,0,0,1-.084.147Zm.014.747a.077.077,0,0,1,.084-.067.616.616,0,0,1-.014.147c-.009.036-.037.053-.084.053A.676.676,0,0,1,9.459,14.656Zm.084,1.227v.094a.13.13,0,0,0-.056.013.1.1,0,0,0-.042.094v-.2Zm-.112-.96c.009,0,.014.027.014.08H9.332A.369.369,0,0,1,9.431,14.923Zm-.225.707c.009.027.051.04.126.04h-.14C9.192,15.617,9.2,15.6,9.206,15.63Zm-.028-1.314a.077.077,0,0,0-.085-.06h.1v.213A.712.712,0,0,0,9.178,14.316Zm0-.7a.263.263,0,0,1,.014.12.052.052,0,0,1-.014.04c-.019.018-.047,0-.085-.04V13.6A.168.168,0,0,1,9.178,13.615Zm-.169-.333h.084c0,.045,0,.069-.007.073a.189.189,0,0,1-.077.007Zm0,1.614V15c-.075,0-.122-.018-.141-.053a.121.121,0,0,1-.014-.054ZM8.77,13.362a.133.133,0,0,1,.042.013.181.181,0,0,1,.042.134.117.117,0,0,1-.014.053.083.083,0,0,1-.07.04Zm0,.48a.116.116,0,0,1,.07.04.04.04,0,0,1,.014.027H8.77Zm-.239.947.1.107h-.1Zm-.239.774h.1a.089.089,0,0,0-.084.054.105.105,0,0,0-.014.053Zm-.071.467a.084.084,0,0,1,.071-.053v.107c-.019.035-.033.053-.043.053a.04.04,0,0,1-.028-.013.056.056,0,0,1-.014-.04A.121.121,0,0,1,8.221,16.03Zm-.14.4a.313.313,0,0,1,.126-.013v.093h-.14C8.067,16.466,8.071,16.439,8.081,16.43Zm.126,1.5v.106h-.14ZM8,17.124a.082.082,0,0,1,.071-.053v.093H7.982A.105.105,0,0,1,8,17.124Zm.071,1.895a.238.238,0,0,1,.07.013c.047.027.07.058.07.093h-.14Zm-.226-.881a.32.32,0,0,1,.127.013c.01.009.014.04.014.094H7.841Zm.014.72c.019-.017.061,0,.127.041H7.841A.058.058,0,0,1,7.855,18.858Zm.429,1.321c0,.009-.03.014-.077.014a.117.117,0,0,1-.014.053c-.019.036-.061.053-.126.053v-.106a.06.06,0,0,1-.043-.014c-.028-.008-.042-.04-.042-.093,0,.053,0,.085-.014.093a.292.292,0,0,1-.127.014v-.107h.226a.133.133,0,0,1-.029-.04c-.018-.035-.009-.053.029-.053q.112,0,.126.06a.637.637,0,0,1,.014.14v-.107h.085A.289.289,0,0,1,8.284,20.179Zm.008-.76H8.207a.238.238,0,0,1,.007-.08c0-.009.03-.013.078-.013Zm-.078-.794c-.005.022-.007.011-.007-.033-.075,0-.112-.022-.112-.067s.037-.067.112-.067a.632.632,0,0,1-.126-.006c-.01-.005-.014-.029-.014-.074h.14v.214h.085C8.244,18.592,8.219,18.6,8.214,18.625Zm.078-2.008H8.207l.085-.107Zm0-.293V16.2c0,.062,0,.1.014.106a.147.147,0,0,0,.084.014Zm.1-.24v-.107h.141a.107.107,0,0,1-.015.053Q8.489,16.084,8.39,16.084Zm.239,3.228a.49.49,0,0,1-.1-.08.271.271,0,0,1,.1.013q.028.014.141.081A.426.426,0,0,1,8.629,19.312Zm.127.454c-.047-.018-.043-.053.014-.107.047-.071.073-.084.077-.04a1.482,1.482,0,0,1,.007.16A.323.323,0,0,1,8.756,19.766Zm.281-.013a.126.126,0,0,1-.028-.094c.037,0,.056.04.056.12Zm.541-1.028a.925.925,0,0,1-.246.174.313.313,0,0,1-.239.08.352.352,0,0,1-.239-.187c-.112-.054-.178-.109-.2-.167a.832.832,0,0,1-.028-.247c.075-.284.139-.555.19-.813a5.724,5.724,0,0,1,.19-.721v-.76h.183a1.985,1.985,0,0,0,.084.546q.084.294.169.534v.12c0,.1,0,.2.014.307a1.146,1.146,0,0,0,.084.334c0,.053.005.129.015.226a.708.708,0,0,0,.112.307A.361.361,0,0,1,9.578,18.725Zm.092-2.308a.207.207,0,0,1,.1.013.137.137,0,0,1,.014.08H9.67ZM9.8,18.959q-.015-.034-.015.06V18.9H9.9C9.839,18.961,9.806,18.981,9.8,18.959Zm.224.14a.654.654,0,0,1-.126-.08h.141C10.036,19.072,10.031,19.1,10.021,19.1Zm.106.08a.088.088,0,0,0-.091-.054.21.21,0,0,0,.126-.04c.038-.026.056-.013.056.04v.107A.087.087,0,0,1,10.127,19.179Zm.091,1.321c.066,0,.1-.011.113-.034s.014-.011.014.034Zm.127-.414v-.093a.115.115,0,0,1,.112.053.1.1,0,0,1,.015.04Zm.773,2a.119.119,0,0,1,.057.12.115.115,0,0,1-.07-.033.292.292,0,0,1-.029-.047.117.117,0,0,1-.014-.053A.139.139,0,0,1,11.118,22.087ZM10.872,20.8a.319.319,0,0,0,.148.033.115.115,0,0,0-.112.053c-.019.036-.052.018-.1-.053Q10.809,20.767,10.872,20.8Zm.007.78c-.028,0-.013-.009.043-.026l.028.106c.009.045.011.063.007.054s-.021-.014-.049-.014c0-.008.014-.022.042-.04C10.931,21.607,10.908,21.58,10.879,21.58Zm.029.334-.1.027.07-.147ZM10.8,20.58a.075.075,0,0,1,.014.053H10.7C10.744,20.58,10.776,20.562,10.8,20.58Zm-.1-.721v.134a.062.062,0,0,1-.043-.014C10.636,19.961,10.649,19.921,10.7,19.859Zm-.043,1.861c0-.022.024-.055.071-.1a.308.308,0,0,1,.028.087.187.187,0,0,0,.014.06C10.692,21.758,10.654,21.743,10.654,21.72Zm.043-.22a.18.18,0,0,1,.035-.047.18.18,0,0,0,.035-.046H10.8a.013.013,0,0,0,.014-.014C10.809,21.447,10.771,21.482,10.7,21.5Zm.351.854a.086.086,0,0,1,0-.067.162.162,0,0,0-.07.014.1.1,0,0,0-.07.093v-.107h-.1a.128.128,0,0,1,.07-.093.109.109,0,0,1,.043-.013c-.047,0-.073-.005-.078-.014a.379.379,0,0,1-.007-.106l.085.12-.014.106h.14l.113.027v.107A.112.112,0,0,1,11.048,22.354Zm.07.307a.14.14,0,0,1-.013-.08.115.115,0,0,0,.013.053c.01.027.043.04.1.04A.2.2,0,0,1,11.118,22.661Zm.212.894h-.015c-.047-.036-.06-.063-.042-.08h.042a.131.131,0,0,1,.057.013c.037.018.056.04.056.067Zm.1-.4-.127-.12v-.106a.131.131,0,0,1,.057.013c.047.027.07.058.07.093a.152.152,0,0,1,.042.027Q11.484,23.075,11.428,23.154Z"/><path d="M16.151,20.926v-.24a5.265,5.265,0,0,0,.1-.94q.015-.54.015-1.034V15.5a.662.662,0,0,1-.085-.313.264.264,0,0,1,.085-.221V12.847a.275.275,0,0,0-.057-.16l-.056-.08a1.076,1.076,0,0,0-.19-.093.486.486,0,0,1-.162-.107.59.59,0,0,0-.541.053.533.533,0,0,0-.274.494V14.4a.185.185,0,0,1,.035.18.357.357,0,0,0-.035.153v4.744c0,.169-.005.354-.015.554a1.862,1.862,0,0,1-.113.567.085.085,0,0,1-.057.08.131.131,0,0,1-.057.013.3.3,0,0,0-.191.074.914.914,0,0,0-.163.166h-.114l-.355-.166a.639.639,0,0,0-.255-.074l-.114-.093a.869.869,0,0,0-.064-.34.887.887,0,0,1-.063-.34v-1a4.147,4.147,0,0,1,.049-.647,1.085,1.085,0,0,0-.049-.567v-.227a1.516,1.516,0,0,0,.049-.66,4.5,4.5,0,0,1-.049-.674,2.7,2.7,0,0,1,.049-.52,1.317,1.317,0,0,0-.049-.6.944.944,0,0,1,.063-.32,1.049,1.049,0,0,0,.063-.36.278.278,0,0,1-.112-.22c-.01-.1-.014-.207-.014-.314v-.667a.406.406,0,0,0-.077-.273.744.744,0,0,0-.257-.167h-.222a.771.771,0,0,0-.438.107.5.5,0,0,0-.16.44,3.732,3.732,0,0,1-.042.54.793.793,0,0,0,.042.46.125.125,0,0,0-.056.014.084.084,0,0,0-.056.08,4.232,4.232,0,0,0,.042.634,1.534,1.534,0,0,1-.042.607v.12a1.682,1.682,0,0,1,.1.427c.009.124.014.235.014.333v.24a1.913,1.913,0,0,0-.1.494c-.01.16-.014.329-.014.507a.286.286,0,0,0,.056.153.331.331,0,0,1,.056.18.127.127,0,0,1,.057.147.082.082,0,0,1-.057.053.785.785,0,0,0-.084.294.687.687,0,0,0,.084.28v.107q-.183.188,0,.333v.227a1.754,1.754,0,0,0-.084.554,1.879,1.879,0,0,0,.084.567q.112.333.232.647a1.279,1.279,0,0,0,.471.567.273.273,0,0,1,.183.074c.056.048.117.1.183.153a1.284,1.284,0,0,0,.7.267,1.367,1.367,0,0,0,.7-.174,1.182,1.182,0,0,0,.451-.153,1.645,1.645,0,0,0,.337-.28,3.673,3.673,0,0,0,.3-.367A3.915,3.915,0,0,1,16.151,20.926Zm-3.137-.693a.057.057,0,0,1-.042.013l-.014-.093h.014C13.01,20.2,13.024,20.224,13.014,20.233Zm-.151-3.227,0,.025h-.122a.276.276,0,0,0,.121-.014Zm-.116,2.586v.094c-.065,0-.1-.016-.1-.047S12.682,19.592,12.747,19.592Zm.015-1.374c-.01-.009-.015-.035-.015-.08a.116.116,0,0,1,.113.053.111.111,0,0,1,.014.04A.24.24,0,0,1,12.762,18.218Zm.105-.307c-.066,0-.108-.02-.127-.06s-.061-.06-.126-.06a.354.354,0,0,1,.126.014A.724.724,0,0,1,12.867,17.911Zm-.134,2h.141l-.014.12a.242.242,0,0,1-.113-.014A.21.21,0,0,1,12.733,19.913Zm.141-6.458h.084c0,.062,0,.1-.014.107s-.037.013-.084.013Zm-.253,2.015h.126c0,.053,0,.085-.014.093a.236.236,0,0,1-.112.014Zm.014,1.734a.109.109,0,0,1,.112-.066v.12h-.126A.109.109,0,0,1,12.635,17.2Zm.225,3.482c0-.044,0-.071.014-.08a.161.161,0,0,1,.084-.013v.093h-.1Zm.112.067a.12.12,0,0,0-.014.053.213.213,0,0,1,.014-.106.239.239,0,0,1,.113-.014A.112.112,0,0,0,12.972,20.753Zm.127.494c.056,0,.089-.011.1-.034s.014-.011.014.034Zm.324-.214-.1-.107h.1Zm.787.761a.3.3,0,0,1-.183-.107v.12q-.534,0-.351-.333h-.113c0-.045.019-.058.057-.041a.241.241,0,0,1,.056.041.164.164,0,0,0,.14.186,1.233,1.233,0,0,0,.211.027.349.349,0,0,1,.169.047c.056.031.084.015.084-.047a.118.118,0,0,1,.1.067.117.117,0,0,1,.014.053A1.345,1.345,0,0,1,14.21,21.794Zm.408-.107h-.126a.14.14,0,0,1,.013-.08.248.248,0,0,1,.113-.013Zm0-.44v-.094h-.126a.227.227,0,0,1,.013-.107.265.265,0,0,1,.113-.013v.12a.121.121,0,0,0,.014.054c.01.026.047.04.112.04Zm.366.347c-.066,0-.083-.005-.05-.014s.05-.044.05-.106Zm.1-.227c0-.062.016-.078.049-.047S15.147,21.367,15.082,21.367Zm.76-1.388c.018.036,0,.054-.043.054v-.12h-.253a.175.175,0,0,1,.014-.094.248.248,0,0,1,.113-.013v-.12a.116.116,0,0,0,.063.12.1.1,0,0,1,.063.107A.644.644,0,0,1,15.842,19.979Zm-.106-2.455.063-.053a.178.178,0,0,0-.07.013c-.009,0-.007.017-.014.023l-.042-.036H15.8v.107Zm-.063-2.235v.12h-.127v-.12Zm-.113,3.235a.116.116,0,0,1-.014-.052.242.242,0,0,0,.113-.014c.009-.008.014-.04.014-.093v.107a.159.159,0,0,0-.07.013A.087.087,0,0,0,15.56,18.524Zm-.014-2.8c-.047-.045-.061-.076-.042-.094a.062.062,0,0,1,.042-.013Zm.253,3.423c0,.045,0,.071-.013.08a.251.251,0,0,1-.113.013Zm-.126-1.121a.213.213,0,0,1,.014-.106.236.236,0,0,1,.112-.014v.12Zm.042-2.862a.064.064,0,0,1-.042.013v-.12C15.72,15.115,15.734,15.151,15.715,15.169Zm-.126-.04a.3.3,0,0,1-.03.037.237.237,0,0,1-.013-.1C15.593,15.062,15.607,15.084,15.589,15.129Zm-.109-.539s0,.016.01.018a.127.127,0,0,0,.056.013h-.1Zm.066,4.562v.214c0-.063-.016-.1-.049-.121a.1.1,0,0,1-.049-.093Zm.127-6.078c.065,0,.1.005.1.013s-.033.036-.1.08Zm0,.974q.071,0,.042.066a.163.163,0,0,1-.042.067Zm.1.293c0,.036-.033.054-.1.054h-.225c0-.036.014-.049.042-.04a.216.216,0,0,1,.056.04.1.1,0,0,0-.056-.094.11.11,0,0,0-.042-.013v-.24h.1a.376.376,0,0,1-.014.133.741.741,0,0,1-.084.107h.225C15.738,14.288,15.771,14.306,15.771,14.341Zm-.309-1.374c.009-.009.037-.013.084-.013v.12h-.1C15.448,13.012,15.452,12.976,15.462,12.967Zm-.014.834a.1.1,0,0,0,.1.047c-.047,0-.075,0-.084.013s-.014.04-.014.093l-.127-.106C15.386,13.786,15.429,13.77,15.448,13.8Zm-.014,7.3a.115.115,0,0,1-.113.053.108.108,0,0,1,.056-.107.184.184,0,0,1,.071-.013A.148.148,0,0,1,15.434,21.1Zm.028-.761c-.01-.008-.014-.04-.014-.093a.1.1,0,0,0,.014.053.09.09,0,0,0,.084.054A.147.147,0,0,1,15.462,20.339Zm.324.307a.118.118,0,0,0-.113-.053c0-.044.018-.058.056-.04a.639.639,0,0,1,.07.04l.113.093H15.8A.1.1,0,0,0,15.786,20.646Z"/><path d="M17.528,21.053a2.3,2.3,0,0,1,.19.34,1.5,1.5,0,0,0,.717.761h.212a.4.4,0,0,1,.126.013.594.594,0,0,1,.113.107h.45a.232.232,0,0,0,.351,0h.338a1.434,1.434,0,0,1,.415-.133.807.807,0,0,0,.4-.187,2.055,2.055,0,0,0,.43-.581,1.685,1.685,0,0,0,.161-.753q0-.321.028-.714a1.766,1.766,0,0,0-.154-.821c-.056-.213-.118-.411-.183-.593a3.815,3.815,0,0,0-.282-.594,1.044,1.044,0,0,1-.281-.22.977.977,0,0,0-.3-.22q-.183-.253-.3-.434a1.075,1.075,0,0,0-.387-.327,2.076,2.076,0,0,1-.176-.227c-.061-.088-.115-.164-.162-.226a2.009,2.009,0,0,0-.176-.261,1.7,1.7,0,0,1-.175-.273c-.057-.115-.111-.227-.162-.333a.753.753,0,0,1-.077-.334.13.13,0,0,0,.056-.013.1.1,0,0,0,.07-.094v-.107a.574.574,0,0,1,.007-.473.917.917,0,0,1,.457-.407.535.535,0,0,0,.085-.094.318.318,0,0,0,.014-.12c-.047-.044-.061-.075-.043-.093a.061.061,0,0,1,.043-.013c0,.115.03.182.091.2a.975.975,0,0,0,.26.026.125.125,0,0,1,.056.014c.048.027.071.053.071.08a.755.755,0,0,1,.26.22,1.887,1.887,0,0,0,.19.22v.12a.266.266,0,0,0-.028.26c.037.076.084.167.14.274a.136.136,0,0,0,.015.067.115.115,0,0,0,.112.053,1.4,1.4,0,0,1,.344.04.53.53,0,0,0,.345-.04c.057-.062.11-.12.162-.173a.233.233,0,0,0,.077-.161v-.32c0-.062-.005-.137-.014-.227a.355.355,0,0,0-.112-.226,1.118,1.118,0,0,0-.155-.581,2.347,2.347,0,0,0-.408-.5.982.982,0,0,0-.429-.24,1.77,1.77,0,0,0-.485-.067c-.066,0-.117.076-.127.067a.175.175,0,0,1-.014-.094h-.351a2.385,2.385,0,0,0-.662.094,1.614,1.614,0,0,0-.6.333,4.362,4.362,0,0,0-.31.354.687.687,0,0,0-.14.433.98.98,0,0,0-.113.367.948.948,0,0,1-.127.381v.106a1.557,1.557,0,0,1,.113.434c.01.12.014.234.014.34s0,.247.014.394a.826.826,0,0,0,.1.367c.112.169.211.329.295.48a1.153,1.153,0,0,0,.394.4q.1.174.141.267a.469.469,0,0,0,.2.187.387.387,0,0,0,.091.193A.3.3,0,0,0,19,17.9a.607.607,0,0,0,.127.213,1.663,1.663,0,0,0,.182.174c.066.053.132.109.2.167a1.149,1.149,0,0,1,.183.206,2.144,2.144,0,0,1,.373.721c.079.267.148.538.2.814a.66.66,0,0,1-.07.347,1.172,1.172,0,0,1-.169.2c-.047.053-.1.106-.155.16l-.183.173h-.225a.333.333,0,0,1-.344-.033,3.034,3.034,0,0,0-.345-.194V20.74a1.118,1.118,0,0,0-.119-.487,1.109,1.109,0,0,1-.12-.487.222.222,0,0,0-.014-.067.446.446,0,0,0-.085-.16.462.462,0,0,0-.259-.093c-.109-.009-.219-.014-.331-.014a.666.666,0,0,1-.218.12c-.08.027-.12.1-.12.214,0,.044,0,.071-.014.08a.245.245,0,0,1-.113.013.2.2,0,0,0-.042.22.789.789,0,0,1,.042.22.916.916,0,0,0,.015.167.288.288,0,0,0,.112.154A.451.451,0,0,0,17.528,21.053Zm3.552-.967a.117.117,0,0,1-.113-.053.148.148,0,0,1-.014-.067h.127Zm-.225-.7c.009.031.042.046.1.046H20.84C20.84,19.37,20.845,19.354,20.855,19.386Zm-.015.473h-.1v-.093a.157.157,0,0,1,.085.013A.14.14,0,0,1,20.84,19.859Zm-.112-.56a.243.243,0,0,1-.112.013V19.2h.126C20.742,19.259,20.738,19.29,20.728,19.3Zm-.225-.974h.113v.107H20.5Zm.239-3.616c0,.054-.023.067-.07.04a.182.182,0,0,1-.056-.04Zm-.928-1.641h.112l-.112.107Zm-.239,0h.112l-.112.107Zm-.338,0a.052.052,0,0,1-.014.04c-.019.018-.051,0-.1-.04Zm-.351.227a.105.105,0,0,1,.014-.053.1.1,0,0,1,.1-.067V13.4h-.112Zm-.577.107v.12a.117.117,0,0,0-.014-.053.118.118,0,0,0-.1-.067Zm-.014.814c-.01-.027-.042-.04-.1-.04a.64.64,0,0,1-.168.106.1.1,0,0,0-.071.107v.12A.13.13,0,0,1,17.9,14.5a.108.108,0,0,1-.056-.107h.112a.275.275,0,0,1,.014-.107.708.708,0,0,1,.1-.106v-.12h-.113c0-.054,0-.067.014-.04s.043.04.1.04a.05.05,0,0,0,.014.04c.019.026.056.013.112-.04l.113.12C18.309,14.229,18.3,14.242,18.3,14.216Zm.014,2.148h.126a.054.054,0,0,1-.013.04C18.393,16.43,18.356,16.417,18.309,16.364Zm.225-2.415v-.094h.113v.094Zm.113,2.842V16.7c.065.045.1.071.1.08S18.712,16.791,18.647,16.791Zm.056-.614a.2.2,0,0,1-.056-.04h.126C18.773,16.19,18.749,16.2,18.7,16.177Zm.3,1.054h-.112a.1.1,0,0,1,.014-.053.1.1,0,0,1,.1-.054Zm-.056-.681c-.038,0-.056-.026-.056-.08H19C19,16.524,18.979,16.55,18.942,16.55Zm.295.8q-.084,0-.084-.06t.084-.06Zm0-.334A.127.127,0,0,1,19.181,17a.105.105,0,0,1-.056-.107h.112a.121.121,0,0,1,.043.014.106.106,0,0,1,.056.106.243.243,0,0,1,.056-.04c.047-.017.07,0,.07.04h-.225Zm.225.881a.81.81,0,0,0,.1-.12.272.272,0,0,0,.014-.107h-.113v-.093l.113-.12a.139.139,0,0,1,.042.147.163.163,0,0,1-.042.066V17.9Zm.619.2a.127.127,0,0,1-.056.013l.127-.106A.1.1,0,0,1,20.081,18.1Zm.3.987v-.093a.061.061,0,0,1,.043.013C20.437,19.023,20.423,19.05,20.376,19.085Zm-.562,2.308h.112V21.5h-.112ZM18.07,20.74H18.2a.107.107,0,0,0,.015.053.1.1,0,0,0,.1.053c-.056.054-.094.067-.113.04s-.06-.04-.126-.04Z"/><path d="M15.957,11.027a1.785,1.785,0,0,1,.309.174.107.107,0,0,0,.113.013.216.216,0,0,0,.056-.04l.275-.12a.266.266,0,0,0,.147-.214l.07-.106a.708.708,0,0,0,.352-.134.569.569,0,0,1,.141.047.844.844,0,0,0,.126.047,1.854,1.854,0,0,1,.324.073,1.868,1.868,0,0,0,.309.073l.141.027.14.027a.6.6,0,0,0,.31.12.511.511,0,0,1,.1.06.52.52,0,0,0,.1.06v.013h.042a.21.21,0,0,0,.091.054.3.3,0,0,1,.092.04l.253.053c.084.018.178.04.281.067a.913.913,0,0,0,.3.193,1.238,1.238,0,0,1,.309.18,3.147,3.147,0,0,0,.464.04,2.874,2.874,0,0,0,.647.28.2.2,0,0,1,.042.054.088.088,0,0,0,.043.04.7.7,0,0,1,.281.046.62.62,0,0,0,.267.047.851.851,0,0,1,.436.093.389.389,0,0,1,.155.361v.527c0,.271,0,.562.014.874s.023.6.042.874a2.878,2.878,0,0,0,.07.54.456.456,0,0,1-.063.247.343.343,0,0,0-.063.18,3.232,3.232,0,0,0,.049.587,1.236,1.236,0,0,1-.049.587c0,.107,0,.211.014.313a.281.281,0,0,0,.112.221.692.692,0,0,1-.035.233c-.024.067-.044.131-.063.193a.341.341,0,0,0-.014.167.288.288,0,0,0,.112.154v.133a1.881,1.881,0,0,0-.168.313.492.492,0,0,0,.042.407.773.773,0,0,1,.112.121.3.3,0,0,1,.014.12,1.437,1.437,0,0,0-.112.413c-.01.116-.014.223-.014.32a1.65,1.65,0,0,1,.063.647,1.128,1.128,0,0,0,.063.554,2.275,2.275,0,0,1-.035.427.348.348,0,0,0,.12.334.659.659,0,0,0,.45.146.608.608,0,0,0,.436-.146.7.7,0,0,0,.133-.374q.021-.226.021-.387V12.7a1.059,1.059,0,0,1,.156-.274,1.365,1.365,0,0,1,.185-.18.68.68,0,0,0,.277-.047.763.763,0,0,1,.291-.046.475.475,0,0,0,.27-.067.7.7,0,0,0,.17-.16.259.259,0,0,0,.135-.147.677.677,0,0,0,.022-.173,1.176,1.176,0,0,0-.022-.26.307.307,0,0,0-.134-.167.117.117,0,0,0-.064-.12.471.471,0,0,1-.148-.12c-.27-.169-.229-.016-.347-.047a1.308,1.308,0,0,0-.332-.047.7.7,0,0,0-.184.034c-.075.022-.15.042-.226.06h-.113a.64.64,0,0,1-.155-.054.551.551,0,0,0-.226-.04.452.452,0,0,0-.149.027l-.148.053h-.1a.717.717,0,0,0-.318-.033.6.6,0,0,1-.317-.047h-.45q-.141-.025-.282-.06t-.267-.06a.21.21,0,0,0-.1-.04,1.319,1.319,0,0,1-.155-.04,2.113,2.113,0,0,0-.274-.107c-.09-.026-.148-.044-.176-.053a1.134,1.134,0,0,1-.274-.107l-.232-.126A2.137,2.137,0,0,0,20,10.14a.961.961,0,0,0-.26-.06.256.256,0,0,0-.2-.187.4.4,0,0,0-.225-.013l-.169-.08a1.8,1.8,0,0,0-.675-.321,2.13,2.13,0,0,0-.4-.093,2.631,2.631,0,0,0-.472-.013,1.329,1.329,0,0,0-.372.06l-.345.1a.211.211,0,0,0-.077.013.217.217,0,0,0-.078.054,1.307,1.307,0,0,1-.2.113.447.447,0,0,0-.177.14.408.408,0,0,0-.231.127q-.091.1-.162.18c-.028.026-.059.058-.092.093a.977.977,0,0,0-.105.147.2.2,0,0,0-.063.167c.005.067.007.136.007.207A.529.529,0,0,0,15.957,11.027Zm8.776.747a.113.113,0,0,0,.014-.053v.107h-.154C24.667,11.828,24.715,11.81,24.733,11.774Zm-.225-.48a.155.155,0,0,1,.085-.013v.093h-.1A.135.135,0,0,1,24.508,11.294Zm-.112.373a.1.1,0,0,1,.1-.066v.12h-.112A.109.109,0,0,1,24.4,11.667Zm-.464.221a.075.075,0,0,1,.084-.06v-.107a.1.1,0,0,1,.1.053.11.11,0,0,1,.015.054h-.1c.056.044.052.075-.014.093a.117.117,0,0,0-.1.12A.647.647,0,0,1,23.932,11.888Zm-.219.1s.007,0,.007-.014a.1.1,0,0,1-.013.04C23.707,12,23.709,11.988,23.713,11.988Zm-1.047-.16a.157.157,0,0,1-.057-.054c-.018-.035,0-.053.057-.053Zm.411,6.9a.318.318,0,0,0,.014-.12h.137v.12l-.137.093H23A.453.453,0,0,0,23.077,18.725ZM23,16.257h.1c0,.053-.005.08-.014.08S23.041,16.31,23,16.257Zm.486-3.242v.08h-.253c0-.044.024-.058.072-.04A.211.211,0,0,0,23.481,13.015ZM23.425,14.1c-.028,0-.051-.018-.07-.054a.113.113,0,0,1-.014-.053.11.11,0,0,1,.042.013A.126.126,0,0,1,23.425,14.1Zm-.1-.561c0,.063-.005.094-.014.094s-.038-.031-.085-.094Zm-.014,1.321a.117.117,0,0,0,.014-.053.09.09,0,0,0,.084-.054.1.1,0,0,0,.014-.053c0,.053,0,.085-.014.093a.147.147,0,0,1-.084.014.091.091,0,0,1,.084.053.09.09,0,0,1,.014.04h-.211A.112.112,0,0,0,23.313,14.856Zm0,4.723a.157.157,0,0,1-.085.013.162.162,0,0,0-.07.014.1.1,0,0,0-.07.093v-.107l.239-.106A.173.173,0,0,1,23.313,19.579Zm.014.12v.227a.165.165,0,0,1-.085-.013.218.218,0,0,1-.014-.107.113.113,0,0,1,.014-.053A.091.091,0,0,1,23.327,19.7Zm-.014-2.642A.092.092,0,0,0,23.228,17h.1v.107A.121.121,0,0,0,23.313,17.057Zm.007-1.494a.3.3,0,0,1-.007-.093.1.1,0,0,1,.014-.053c.02-.045.044-.067.073-.067v.227C23.352,15.577,23.325,15.572,23.32,15.563Zm-.246,4.616a.052.052,0,0,0,.014-.04c.065,0,.107-.017.126-.053a.136.136,0,0,0,.014-.067c0,.063,0,.1-.014.107a.294.294,0,0,1-.126.013.18.18,0,0,1,.126.04.094.094,0,0,1,.014.04h-.239A.1.1,0,0,0,23.074,20.179Zm.385.534a.13.13,0,0,1-.123.053h-.108a.313.313,0,0,0,.036.14c.023.05.011.074-.036.074h-.137a.14.14,0,0,0,.067-.08.44.44,0,0,0,.007-.08.529.529,0,0,1,.007-.08.142.142,0,0,1,.067-.08h.235A.107.107,0,0,1,23.459,20.713Zm.022.494V21.1a.1.1,0,0,1,.042.013.124.124,0,0,1,.043.094Zm.085-.641v.094h-.089a.078.078,0,0,0-.022-.06.113.113,0,0,1-.03-.04.075.075,0,0,1,0-.047.261.261,0,0,1,.052-.08h.089Zm-.022-1.641-.063-.107v-.093c.048,0,.073,0,.078.013a.281.281,0,0,1,.007.08Zm-.048-.467a.132.132,0,0,1-.015-.066.1.1,0,0,1,.042.013.156.156,0,0,1,.043.12C23.538,18.525,23.514,18.5,23.5,18.458Zm-.015-.16v-.107a.107.107,0,0,1,.042.014.122.122,0,0,1,.043.093Zm.085-3.108a.121.121,0,0,0-.014-.054c-.029-.044-.052-.066-.071-.066h.085Zm-.022-2.429-.063-.106v-.094c.048,0,.073.005.078.014a.27.27,0,0,1,.007.08Zm.05-.807c0,.014-.009.02-.028.02v-.053h-.085v-.093a.082.082,0,0,1,.071.053.105.105,0,0,1,.014.04h.042A.042.042,0,0,0,23.594,11.954Zm-.1-.513c.018-.045.042-.067.07-.067a.447.447,0,0,1-.007.107c-.005.009-.03.013-.078.013A.107.107,0,0,1,23.5,11.441Zm-.092.106a.066.066,0,0,0,.057,0,.135.135,0,0,1-.066.039.18.18,0,0,1-.068.014C23.327,11.547,23.352,11.53,23.4,11.547Zm-.176.6h.1a.133.133,0,0,0-.058.013.088.088,0,0,0-.043.08Zm-.067.707a.639.639,0,0,1,.071.04h-.141c.075.062.089.1.043.107a.734.734,0,0,1-.139.013v-.24c.046.062.062.1.048.107s0,.013.048.013C23.091,12.851,23.114,12.837,23.161,12.855ZM23,11.374h.1a.218.218,0,0,1-.014.107.157.157,0,0,1-.085.013Zm-.131,0,.056.08a.247.247,0,0,1,.049.067A.168.168,0,0,1,23,11.6h-.126Zm0,.454a.132.132,0,0,1,.041.146.168.168,0,0,1-.041.067Zm-.08-.227c0,.062,0,.093-.014.093a.488.488,0,0,1-.112-.093c0-.054,0-.08.014-.08A.46.46,0,0,1,22.792,11.6Zm-.253-.214a.324.324,0,0,1,.127-.013.218.218,0,0,1-.014.107.3.3,0,0,1-.127.013A.218.218,0,0,1,22.539,11.387Zm-.351.441a.1.1,0,0,0-.057-.094.124.124,0,0,0-.056-.013h.113Zm-.212-.547a.157.157,0,0,1,.085.013.135.135,0,0,1,.014.08h-.1Zm-.126.32c-.019.035-.033.053-.042.053a.04.04,0,0,1-.028-.013.05.05,0,0,1-.014-.04Zm-.38-.761a.152.152,0,0,1,.042.027c.01.009,0,.013-.014.013H21.47Zm-.717.414.042.12-.113.027-.013-.094Zm-.31-.24a.112.112,0,0,1-.126-.027.074.074,0,0,1-.028-.053ZM19.9,10.52v.013h.014v.027l.042.04-.126.054H19.8C19.825,10.645,19.857,10.6,19.9,10.52Zm-.8-.267v.067l-.07.013-.014-.013A.092.092,0,0,1,19.093,10.253Zm-.253.374a.04.04,0,0,1,.014-.027q.057.068.042.06c-.009,0-.023,0-.042.02l-.014-.026Zm-1.5-.774c.038-.027.063-.035.077-.027a.877.877,0,0,1,.12.147.12.12,0,0,0-.1-.067.133.133,0,0,0-.057.014c-.028.044-.047.064-.056.06a.294.294,0,0,1-.056-.087Zm-.506.32c.028.045.049.067.063.067A.381.381,0,0,0,17,10.2l-.113.053v.027l-.028.12-.028-.027V10.36l-.014-.04.07-.067Zm-.479.521.1.08a.162.162,0,0,1-.07-.014C16.332,10.743,16.323,10.72,16.35,10.694Zm-.069-.441.027.067a.124.124,0,0,0-.084.04Z"/><path d="M15.073,23.558c-.056-.066-.136-.157-.241-.273a.583.583,0,0,0-.221-.04,1.411,1.411,0,0,0-.242.02,1.183,1.183,0,0,0-.213.053.411.411,0,0,0-.136.074.506.506,0,0,1-.064.266.551.551,0,0,0-.064.281,1.6,1.6,0,0,0-.042.627,4.149,4.149,0,0,1,.042.56,2.544,2.544,0,0,0-.042.8,9.008,9.008,0,0,1,.042.907v1.387a.208.208,0,0,0,0,.334v.2a1.231,1.231,0,0,0-.042.56,4.628,4.628,0,0,1,.042.627,1.334,1.334,0,0,1-.042.327.41.41,0,0,0,.042.314v.107a.4.4,0,0,0-.112.166.331.331,0,0,1-.113.154.524.524,0,0,1-.246.346.9.9,0,0,1-.429.094.148.148,0,0,0-.113.033c-.018.023-.056.011-.112-.033a.656.656,0,0,0-.521-.114,1.717,1.717,0,0,0-.492.207.1.1,0,0,1-.063.107.1.1,0,0,0-.063.107c-.113.116-.169.191-.169.226s.056.1.169.2a.3.3,0,0,0,.014.12.549.549,0,0,0,.112.106,1.889,1.889,0,0,0,.492.261c.17.058.343.109.521.153a1.884,1.884,0,0,0,.661.067,1.044,1.044,0,0,0,.595-.254.74.74,0,0,1,.2-.173c.087-.054.13-.107.13-.16l.176-.167c.052-.049.11-.1.176-.154a1.161,1.161,0,0,0,.12-.266.386.386,0,0,1,.091-.174.743.743,0,0,0,.1-.247,1.336,1.336,0,0,0,.013-.18v-.733a2.539,2.539,0,0,1,.05-.514,1.228,1.228,0,0,0-.05-.58A1.082,1.082,0,0,0,15,29.028c-.019-.075.033-.166.155-.273v-.2A4.3,4.3,0,0,0,15.1,27.8a4.28,4.28,0,0,1-.064-.767.484.484,0,0,1,.064-.254.545.545,0,0,0,.063-.28,2.5,2.5,0,0,1-.113-.567c-.009-.164-.014-.331-.014-.5,0-.151,0-.309.014-.474a1.539,1.539,0,0,1,.113-.487,1,1,0,0,0-.049-.32.42.42,0,0,1,.049-.333A.394.394,0,0,0,15.073,23.558Zm-2.433,8.8a.113.113,0,0,1-.112.053V32.3h.127A.107.107,0,0,1,12.64,32.357Zm.394.147a.11.11,0,0,1-.042.013.1.1,0,0,1,.042-.093.13.13,0,0,1,.057-.014A.1.1,0,0,1,13.034,32.5Zm1.674-6.738v.094a.158.158,0,0,1-.07-.014.083.083,0,0,1-.056-.08Zm-.366,2.248a.615.615,0,0,1-.116.087l0-.08a.13.13,0,0,0,.056-.013.1.1,0,0,0,.07-.094A.2.2,0,0,1,14.342,28.014Zm-.058-.994c.048-.017.072-.044.072-.08,0,.045,0,.072-.014.08a.256.256,0,0,1-.116.014A.141.141,0,0,0,14.284,27.02Zm-.054-.84a.094.094,0,0,1,.056-.093.162.162,0,0,1,.07-.014.062.062,0,0,1,.043.014c.018.018,0,.049-.043.093Zm.126,1.187c0,.054-.023.067-.07.04a.182.182,0,0,1-.056-.04Zm.127.961c.047,0,.061.018.042.053a.2.2,0,0,1-.042.054Zm0-.414c0-.062.021-.077.063-.046a.266.266,0,0,0,.162.046c-.066.054-.108.067-.126.04A.116.116,0,0,0,14.483,27.914Zm.155-.227a.106.106,0,0,0-.056.107v-.12h.126A.175.175,0,0,0,14.638,27.687ZM14.5,24.105c.009.023.037.034.085.034h-.1C14.483,24.094,14.487,24.083,14.5,24.105Zm.085.141c0,.062-.006.078-.015.046s-.037-.046-.084-.046Zm-.1.987a.606.606,0,0,0-.113.086.273.273,0,0,0-.014.114v-.2Zm-.253-1.174.126.08h-.13Zm-.211,7.164v-.107a.09.09,0,0,1,.084.054.105.105,0,0,1,.014.053Zm.1.307c-.009.009-.037.013-.084.013V31.45h.1A.137.137,0,0,1,14.117,31.53Zm.113-.947v-.12c0,.062.016.1.049.106S14.3,30.583,14.23,30.583Zm0-.307.13-.12v.12Zm.144.88c-.009.027-.014.014-.014-.04s.019-.057.056-.04c.019.009.043.023.071.04C14.417,31.116,14.379,31.13,14.37,31.156Zm.338-.36-.126-.106h.126Zm.014-4.549a.148.148,0,0,1-.014-.067.129.129,0,0,1,.113.067.065.065,0,1,1-.1,0Z"/><path d="M23.779,34.171a1.128,1.128,0,0,1-.3-.186c-.056-.027-.1-.032-.126-.014a.16.16,0,0,0-.043.027c-.122.062-.223.111-.3.147a.263.263,0,0,0-.148.213l-.084.094c-.047.017-.132.055-.253.113a1.067,1.067,0,0,1-.281.1.324.324,0,0,0-.1.014,1.392,1.392,0,0,1-.8-.241.889.889,0,0,1-.141-.126,2.224,2.224,0,0,1-.266-.354l-.015-.013a2.988,2.988,0,0,1-.19-.407c-.051-.138-.1-.269-.147-.394a.472.472,0,0,0-.021-.266c-.033-.081-.073-.183-.12-.307a.429.429,0,0,1-.077-.194c-.024-.1-.047-.211-.071-.327a3.1,3.1,0,0,1-.049-.32c-.009-.1-.014-.155-.014-.173v-.134q-.113-.253-.183-.433a1.11,1.11,0,0,1-.07-.407q-.084-.507-.218-1.034t-.218-1.034c-.056-.276-.113-.552-.169-.828s-.117-.573-.183-.893v-.44a1.928,1.928,0,0,1-.126-.434,3.374,3.374,0,0,0-.1-.434v-.107c0-.1,0-.18-.008-.246a.365.365,0,0,0-.077-.194.254.254,0,0,1-.127-.207c-.009-.093-.014-.171-.014-.233a1.518,1.518,0,0,0-.056-.42,1.434,1.434,0,0,1-.056-.407.993.993,0,0,1-.113-.167c-.018-.04-.061-.06-.126-.06a.255.255,0,0,0-.169-.107,2.23,2.23,0,0,0-.281-.013q0-.16-.24,0a.836.836,0,0,0-.386.3.535.535,0,0,0-.077.474.107.107,0,0,1-.015.053.1.1,0,0,1-.084.04,1.223,1.223,0,0,0-.078.387c0,.133-.007.253-.007.36v.36a.247.247,0,0,0-.126.194,2.125,2.125,0,0,0-.014.22q-.071.333-.162.7t-.162.687v.2a2.178,2.178,0,0,1-.077.56c-.052.2-.105.378-.162.547a1.1,1.1,0,0,0-.112.354c-.019.129-.033.262-.043.4s-.016.271-.02.4a1.65,1.65,0,0,1-.05.354,3.183,3.183,0,0,0-.1.487.874.874,0,0,1-.127.38,1.442,1.442,0,0,1-.056.413,1.236,1.236,0,0,0-.056.361,1.343,1.343,0,0,0-.113.466c-.009.161-.014.321-.014.481a.257.257,0,0,0,.078.167,1.212,1.212,0,0,0,.161.153.729.729,0,0,0,.288.054.9.9,0,0,0,.31-.054.746.746,0,0,0,.267-.167.48.48,0,0,0,.148-.273.231.231,0,0,1,.07-.147.273.273,0,0,0,.07-.187A.76.76,0,0,0,17,31.763a.148.148,0,0,1,.056-.206.747.747,0,0,0,.078-.134.469.469,0,0,0,.007-.093v-.107a1.063,1.063,0,0,1,.373-.347.959.959,0,0,1,.429-.093,1.159,1.159,0,0,1,.541.107,1.128,1.128,0,0,1,.4.44c.028.107.065.265.112.473a4.838,4.838,0,0,1,.1.661.973.973,0,0,0,.028.127c.009.031.019.064.028.1q.113.385.232.767t.274.74a2.284,2.284,0,0,0,.127.254,1.2,1.2,0,0,0,.113.16.651.651,0,0,0,.112.107,1.054,1.054,0,0,1,.077.146.944.944,0,0,0,.092.161,2.117,2.117,0,0,0,.471.42,2.187,2.187,0,0,0,.612.286,3.059,3.059,0,0,0,.45.074,2.961,2.961,0,0,0,.52-.007c.047-.009.092-.015.134-.02a.357.357,0,0,0,.12-.033h.07a4.033,4.033,0,0,0,.45-.147.856.856,0,0,0,.38-.28.392.392,0,0,0,.231-.113l.177-.167a.562.562,0,0,1,.091-.114,1.176,1.176,0,0,0,.119-.14.249.249,0,0,0,.042-.16,1.038,1.038,0,0,0-.027-.227A.5.5,0,0,0,23.779,34.171ZM16.352,30.89H16.24a.189.189,0,0,0,.1-.014c.009-.008.014-.04.014-.093Zm.071-.174c-.047.027-.071.014-.071-.04h.113v-.093a.087.087,0,0,0,.056.08.162.162,0,0,0,.07.013A.339.339,0,0,0,16.423,30.716Zm2.728-1.654a.059.059,0,0,1,.042-.014v.134Q19.109,29.1,19.151,29.062Zm-.52-3.029a.12.12,0,0,1,.1.067.108.108,0,0,1,.014.053h-.112Zm0,1.721v-.093a.1.1,0,0,0,.014.053c.009.027.042.04.1.04Zm.112.214c0,.053,0,.084-.014.093a.194.194,0,0,1-.1.013v-.106h.112Zm-.014-1.108a.119.119,0,0,0-.1-.066h.112v.12A.109.109,0,0,0,18.729,26.86Zm-.14-.326c-.029-.04-.014-.06.042-.06v.2A.237.237,0,0,0,18.589,26.534Zm.042-.274c-.047.045-.08.058-.1.04a.051.051,0,0,1-.015-.04ZM18.293,24.5h.1a.25.25,0,0,1-.014.08.865.865,0,0,1-.085.147Zm.014.747a.078.078,0,0,1,.085-.067.616.616,0,0,1-.014.147c-.01.036-.038.053-.085.053A.676.676,0,0,1,18.307,25.246Zm.085,1.228v.093a.139.139,0,0,0-.056.013.1.1,0,0,0-.043.094v-.2Zm-.113-.961c.009,0,.014.027.014.08h-.112A.393.393,0,0,1,18.279,25.513Zm-.225.707c.01.027.052.04.127.04H18.04C18.04,26.207,18.045,26.193,18.054,26.22Zm-.028-1.314a.076.076,0,0,0-.084-.06h.1v.213A.712.712,0,0,0,18.026,24.906Zm0-.7a.257.257,0,0,1,.014.12.054.054,0,0,1-.014.04c-.019.018-.047,0-.084-.04v-.134A.15.15,0,0,1,18.026,24.206Zm-.169-.334h.085a.161.161,0,0,1-.008.073.189.189,0,0,1-.077.007Zm0,1.614v.107c-.075,0-.122-.018-.14-.053a.11.11,0,0,1-.015-.054Zm-.239-1.534a.126.126,0,0,1,.042.013.181.181,0,0,1,.042.134.117.117,0,0,1-.014.053.081.081,0,0,1-.07.04Zm0,.48a.119.119,0,0,1,.07.04.04.04,0,0,1,.014.027h-.084Zm-.239.947.1.107h-.1Zm-.239.774h.1a.091.091,0,0,0-.085.054.105.105,0,0,0-.014.053Zm-.071.467a.084.084,0,0,1,.071-.053v.107c-.019.035-.033.053-.042.053a.042.042,0,0,1-.029-.013.054.054,0,0,1-.014-.04A.121.121,0,0,1,17.069,26.62Zm-.14.4a.313.313,0,0,1,.126-.013V27.1h-.14A.139.139,0,0,1,16.929,27.02Zm.126,1.5v.107h-.14Zm-.21-.8a.081.081,0,0,1,.07-.053v.093H16.83A.1.1,0,0,1,16.845,27.714Zm.07,1.9a.233.233,0,0,1,.07.013c.047.027.07.058.07.093h-.14Zm-.225-.881a.286.286,0,0,1,.126.014c.01.008.014.04.014.093h-.14Zm.014.721c.019-.018.061-.005.126.04h-.14A.054.054,0,0,1,16.7,29.449Zm.429,1.321c0,.008-.031.013-.078.013a.115.115,0,0,1-.013.053.132.132,0,0,1-.127.054v-.107a.067.067,0,0,1-.043-.013c-.027-.009-.042-.04-.042-.094,0,.054,0,.085-.014.094a.313.313,0,0,1-.126.013v-.107h.225a.133.133,0,0,1-.028-.04c-.019-.035-.009-.053.028-.053.075,0,.117.02.127.06a.648.648,0,0,1,.013.14v-.107h.085A.355.355,0,0,1,17.133,30.77Zm.007-.761h-.085a.275.275,0,0,1,.007-.08c0-.009.031-.013.078-.013Zm-.078-.794c0,.022-.007.011-.007-.033-.075,0-.112-.022-.112-.067s.037-.067.112-.067a.632.632,0,0,1-.126-.006c-.009-.005-.014-.029-.014-.074h.14v.214h.085Q17.069,29.182,17.062,29.215Zm.078-2.008h-.085l.085-.106Zm0-.293v-.12c0,.062,0,.1.014.106a.149.149,0,0,0,.085.014Zm.1-.24v-.107h.14a.117.117,0,0,1-.014.053Q17.337,26.674,17.239,26.674Zm.239,3.228a.46.46,0,0,1-.1-.08.282.282,0,0,1,.1.013c.018.01.065.036.14.081A.414.414,0,0,1,17.478,29.9Zm.126.454c-.047-.018-.042-.053.014-.107.047-.071.073-.084.077-.04a1.482,1.482,0,0,1,.007.16A.323.323,0,0,1,17.6,30.356Zm.281-.013a.13.13,0,0,1-.028-.094c.037,0,.057.04.057.12Zm.542-1.028a.959.959,0,0,1-.246.174.314.314,0,0,1-.239.08.351.351,0,0,1-.24-.187c-.112-.053-.178-.109-.2-.167a.873.873,0,0,1-.027-.247q.112-.426.19-.813a5.772,5.772,0,0,1,.189-.721v-.76h.183a2,2,0,0,0,.084.547q.086.293.169.533v.12c0,.1,0,.2.014.307a1.149,1.149,0,0,0,.085.334c0,.053,0,.129.014.227a.7.7,0,0,0,.112.306A.365.365,0,0,1,18.427,29.315Zm.091-2.308a.212.212,0,0,1,.1.013.139.139,0,0,1,.014.081h-.113Zm.127,2.542c-.01-.022-.014,0-.014.06v-.12h.112C18.687,29.551,18.654,29.571,18.645,29.549Zm.225.14a.642.642,0,0,1-.127-.08h.141C18.884,29.662,18.879,29.689,18.87,29.689Zm.105.08a.087.087,0,0,0-.091-.054.213.213,0,0,0,.127-.04c.037-.026.056-.013.056.04v.107A.087.087,0,0,1,18.975,29.769Zm.092,1.321c.065,0,.1-.011.112-.034s.014-.011.014.034Zm.126-.414v-.093a.116.116,0,0,1,.113.053.105.105,0,0,1,.014.04Zm.774,2a.12.12,0,0,1,.056.12.115.115,0,0,1-.07-.033.292.292,0,0,1-.028-.047.1.1,0,0,1-.015-.053A.147.147,0,0,1,19.967,32.677Zm-.246-1.287a.312.312,0,0,0,.147.033.114.114,0,0,0-.112.054q-.029.052-.1-.054C19.657,31.379,19.679,31.368,19.721,31.39Zm.007.78c-.028,0-.014-.009.042-.026l.028.106c.009.045.012.063.007.054s-.021-.014-.049-.014c0-.008.014-.022.042-.04C19.779,32.2,19.756,32.17,19.728,32.17Zm.028.334-.1.027.071-.147Zm-.112-1.334a.075.075,0,0,1,.013.053h-.112C19.592,31.17,19.624,31.152,19.644,31.17Zm-.1-.721v.134a.057.057,0,0,1-.042-.014Q19.475,30.544,19.545,30.449ZM19.5,32.31c0-.022.023-.055.07-.1a.308.308,0,0,1,.028.087.219.219,0,0,0,.014.06C19.54,32.348,19.5,32.333,19.5,32.31Zm.042-.22a.2.2,0,0,1,.035-.047A.16.16,0,0,0,19.615,32h.029c.009,0,.013,0,.013-.014C19.657,32.037,19.62,32.073,19.545,32.09Zm.352.854a.076.076,0,0,1,0-.066.164.164,0,0,0-.071.013.1.1,0,0,0-.07.093v-.106h-.1a.127.127,0,0,1,.071-.094.106.106,0,0,1,.042-.013c-.047,0-.073-.005-.077-.014a.379.379,0,0,1-.007-.106l.084.12-.014.107H19.9l.112.026v.107A.11.11,0,0,1,19.9,32.944Zm.07.307a.137.137,0,0,1-.014-.08.117.117,0,0,0,.014.053c.009.027.042.04.1.04A.194.194,0,0,1,19.967,33.251Zm.211.894h-.014c-.047-.036-.061-.062-.042-.08h.042a.13.13,0,0,1,.056.013c.037.018.056.04.056.067Zm.1-.4-.126-.12v-.107a.13.13,0,0,1,.056.013c.047.027.07.058.07.094a.152.152,0,0,1,.043.026C20.328,33.66,20.314,33.691,20.276,33.745Zm.352,1.2.042-.16.071.12Zm.295.187-.084-.066.126-.04Zm-.014-.253a.113.113,0,0,1-.1-.04l.07-.067.084.093A.125.125,0,0,1,20.909,34.879Zm.2.347a.2.2,0,0,1-.042-.067c0-.009.023-.023.071-.04.027.017.042.031.042.04S21.153,35.19,21.106,35.226Zm.239-.361c.038-.026.049-.031.036-.013s-.007.044.02.08Zm1.055.467c-.047.027-.077.036-.091.027a.738.738,0,0,1-.106-.133.092.092,0,0,0,.085.053.064.064,0,0,0,.042-.013.293.293,0,0,1,.084-.054c.009,0,.028.022.056.067ZM22.892,35q-.042-.054-.063-.054a.232.232,0,0,0-.091.054l.1-.067v-.013l.028-.134a.054.054,0,0,0,.014.04.013.013,0,0,0,.014.014l.042.04-.1.053Zm.478-.507-.084-.067h.071a.034.034,0,0,1,.035.02C23.4,34.458,23.389,34.474,23.37,34.492Zm.085.427-.042-.014q.042,0,.084-.066Z"/><path d="M24.622,23.832a1.679,1.679,0,0,0-.028-.32.317.317,0,0,0-.2-.227,1,1,0,0,1-.295-.04.448.448,0,0,0-.313.04.559.559,0,0,0-.314.093.383.383,0,0,0-.143.347,1.171,1.171,0,0,0-.1.374,1.137,1.137,0,0,1-.115.387q0,.333-.013.66a3.378,3.378,0,0,1-.095.66,6.516,6.516,0,0,0-.176.654,3.231,3.231,0,0,0-.067.667,2.081,2.081,0,0,1-.059.494,2.02,2.02,0,0,0-.058.48q-.089.348-.168.667a2.714,2.714,0,0,0-.081.667.848.848,0,0,1-.014.154.086.086,0,0,1-.1.073.2.2,0,0,0-.015-.067c-.009-.017-.021-.042-.034-.073a.3.3,0,0,0-.064-.087v-.106a1.612,1.612,0,0,0-.056-.454,1.467,1.467,0,0,1-.057-.427V28.1a3.928,3.928,0,0,0-.126-.974q-.126-.494-.239-.987a4.786,4.786,0,0,1-.1-.754q-.014-.341-.014-.687a3.991,3.991,0,0,1-.112-.587,2.2,2.2,0,0,0-.113-.507.837.837,0,0,0-.175-.24.407.407,0,0,0-.275-.08h-.225a.446.446,0,0,0-.436.053.484.484,0,0,0-.155.387,1.5,1.5,0,0,0,.057.447,1.429,1.429,0,0,1,.056.42,1.3,1.3,0,0,0,.07.447q.07.193.155.447a.733.733,0,0,0,.042.267.324.324,0,0,1-.042.267v.12a.3.3,0,0,1,.1.16.972.972,0,0,1,.015.16,1.192,1.192,0,0,0,.112.5.66.66,0,0,1,.028.5l.113.106c.056.161.11.327.161.5a2.065,2.065,0,0,1,.078.594,1.983,1.983,0,0,0,.014.266.973.973,0,0,0,.1.281.668.668,0,0,1,.049.34.615.615,0,0,0,.05.326.491.491,0,0,0,.021.387,1.348,1.348,0,0,1,.091.481c0,.053,0,.131.015.233a.939.939,0,0,0,.1.327v.334a.194.194,0,0,1,.1.013c.01.009.014.04.014.093a.487.487,0,0,0-.028.367,2.519,2.519,0,0,0,.141.394.6.6,0,0,0,.45.414.784.784,0,0,0,.605-.081,1.057,1.057,0,0,0,.169-.22.473.473,0,0,0,.084-.22,2.252,2.252,0,0,1,.014-.293.721.721,0,0,1,.1-.254.564.564,0,0,1,.057-.267.606.606,0,0,0,.056-.28,5.869,5.869,0,0,0,.1-.654,2.757,2.757,0,0,1,.113-.573,7.535,7.535,0,0,0,.126-.814,2.838,2.838,0,0,1,.212-.814v-.107a2.869,2.869,0,0,1,.081-.68q.082-.333.172-.761a.819.819,0,0,1,.07-.333.787.787,0,0,0,.07-.32c0-.116,0-.227.014-.334a.823.823,0,0,1,.1-.32,1.511,1.511,0,0,1,.056-.387,1.55,1.55,0,0,0,.056-.387,2.439,2.439,0,0,0,.113-.493A2.513,2.513,0,0,1,24.622,23.832Zm-4.078-.107H20.8c-.056.054-.094.08-.113.08A.394.394,0,0,1,20.544,23.725Zm.14.2v-.093a.137.137,0,0,0,.014.08.2.2,0,0,0,.1.013Zm.352,2.429a.166.166,0,0,1-.071-.014.1.1,0,0,1-.056-.093h.127Zm0-1.2v.333a.275.275,0,0,0-.064-.173.261.261,0,0,1-.063-.16.175.175,0,0,1,.014-.094.262.262,0,0,1,.113-.013Zm-.113-.347a.218.218,0,0,1-.014-.107l.127.12A.245.245,0,0,1,20.923,24.806Zm.549,2.761h-.113v-.106Zm-.324.107c0-.053.016-.08.049-.08s.05.027.05.08Zm.1-1.534v-.12a.118.118,0,0,1,.1.067.117.117,0,0,1,.014.053Zm.337,2.308a.109.109,0,0,1-.014.054.1.1,0,0,1-.1.053v-.107l.112-.107Zm-.023-.645a.26.26,0,0,0-.047-.062.222.222,0,0,0-.155-.067H21.7Zm.276,1.859v-.12h.113a.108.108,0,0,1-.056.107A.131.131,0,0,1,21.837,29.662Zm.225.32a.1.1,0,0,1-.1-.053.109.109,0,0,1-.014-.054h.112Zm.113,2.415a.057.057,0,0,1-.042-.013q-.028-.027.042-.12Zm.113-1.654H22.4c0,.053,0,.085-.014.093a.189.189,0,0,1-.1.014Zm.007.227v.106a.057.057,0,0,1-.042-.013C22.234,31.045,22.249,31.014,22.3,30.97Zm0,.667V31.53h.113a.216.216,0,0,1,.056-.04c.047-.018.071,0,.071.04h-.127Zm.1.106a.07.07,0,0,1,.078-.08.244.244,0,0,1,.161.08Zm.132-.667-.123-.106h.123v.106a.126.126,0,0,0,.11-.04c.018-.026.055-.013.11.04Zm.4-1.881a.239.239,0,0,1-.07.014.057.057,0,0,1-.042-.014q-.028-.027.042-.093h.141A.1.1,0,0,1,22.934,29.2Zm.24-.333a.131.131,0,0,1-.057.013l.113-.107A.1.1,0,0,1,23.174,28.862Zm0-.774a.131.131,0,0,1-.057.013h-.112a.106.106,0,0,1,.056-.107.143.143,0,0,1,.056-.013h.113A.108.108,0,0,1,23.174,28.088Zm.731-3.816h-.126v-.106a.13.13,0,0,1,.056.013C23.881,24.206,23.905,24.237,23.905,24.272Zm0,.547h-.126V24.7h.126Zm-.126-.987v.093c-.057,0-.085,0-.085-.013S23.722,23.876,23.779,23.832Zm-.043,1.107c.037.018.05.052.042.1a.16.16,0,0,1-.042-.01.108.108,0,0,1-.056-.107A.127.127,0,0,1,23.736,24.939Zm-.3.654a.119.119,0,0,0-.042-.107c-.029-.017-.014-.057.042-.12q.084.094.084.12c0,.018-.028.054-.084.107V25.7a.1.1,0,0,0-.056-.094.131.131,0,0,0-.057-.013Zm-.113,1.761v-.107l.113.107Zm.113-1.334c-.047-.036-.061-.062-.042-.08a.057.057,0,0,1,.042-.013Zm.168-.013a.124.124,0,0,1-.056.013v-.093h.113A.086.086,0,0,1,23.609,26.007Zm.423-1.735a.223.223,0,0,1-.043-.053c-.019-.036,0-.053.043-.053Zm0-.347v-.093h.14Z"/><path d="M29.039,31.737c-.01-.094-.014-.162-.014-.207v-.107c-.057-.16-.108-.3-.155-.433a1.3,1.3,0,0,1-.07-.447q-.084-.481-.226-1.021t-.224-1.034q-.1-.387-.183-.814t-.183-.894v-.44a3.736,3.736,0,0,1-.1-.44,2.286,2.286,0,0,0-.116-.427v-.094a1.814,1.814,0,0,0-.014-.266.306.306,0,0,0-.1-.174.317.317,0,0,1-.116-.227c-.009-.1-.015-.168-.015-.213a1.676,1.676,0,0,0-.049-.427,1.671,1.671,0,0,1-.049-.427.7.7,0,0,1-.112-.153c-.019-.04-.061-.06-.127-.06a.266.266,0,0,0-.168-.094,2.407,2.407,0,0,0-.3-.013c0-.062-.021-.094-.063-.094a.227.227,0,0,0-.148.094.751.751,0,0,0-.4.293.481.481,0,0,0-.063.454.113.113,0,0,1-.014.053.1.1,0,0,1-.1.054,1.109,1.109,0,0,0-.084.38c-.009.147-.014.273-.014.38v.32a.348.348,0,0,0-.112.22,1.917,1.917,0,0,0-.015.221c-.056.222-.112.456-.169.7s-.112.474-.168.687v.227a2.139,2.139,0,0,1-.078.547q-.076.294-.161.534a1.075,1.075,0,0,0-.113.353,3.94,3.94,0,0,0-.035.4c-.005.138-.012.272-.021.4a2.007,2.007,0,0,1-.056.353,2.278,2.278,0,0,0-.113.467,1.41,1.41,0,0,1-.113.414,1.27,1.27,0,0,1-.056.407,1.067,1.067,0,0,0-.056.34,1.764,1.764,0,0,0-.1.487c-.01.164-.014.327-.014.487a.243.243,0,0,0,.07.16c.047.053.1.107.154.16a.952.952,0,0,0,.289.04.926.926,0,0,0,.31-.053.815.815,0,0,0,.266-.16.527.527,0,0,0,.162-.267.24.24,0,0,1,.064-.147.273.273,0,0,0,.063-.173,1.05,1.05,0,0,0-.049-.314c-.033-.1-.017-.175.049-.22a.688.688,0,0,0,.084-.107.3.3,0,0,0,.014-.12V31.2a1.092,1.092,0,0,1,.362-.326.973.973,0,0,1,.432-.087,1.3,1.3,0,0,1,.561.1.926.926,0,0,1,.375.42,1.8,1.8,0,0,1,.1.487c.009.165.014.331.014.5a.8.8,0,0,0,.323.481,1.039,1.039,0,0,0,.591.16.268.268,0,0,0,.169-.067c.056-.044.112-.093.169-.147a1.312,1.312,0,0,0,.147-.333.8.8,0,0,0-.021-.427A.309.309,0,0,1,29.039,31.737Zm-1.1-2.689a.062.062,0,0,1,.042-.013v.107C27.937,29.1,27.923,29.066,27.942,29.048Zm-1.1-2.848c.01.022.052.033.127.033h-.14C26.831,26.189,26.835,26.178,26.844,26.2Zm-.027-1.3c-.01-.044-.043-.067-.1-.067h.113v.214A.749.749,0,0,0,26.817,24.9Zm.365,1.561-.014.094a.1.1,0,0,0-.048.013.109.109,0,0,0-.037.093l-.013-.2Zm.127.52a.189.189,0,0,1,.1.014.173.173,0,0,1,.014.093h-.112Zm.112.761v-.094a.121.121,0,0,0,.014.054c.01.027.038.04.084.04Zm.1.227a.177.177,0,0,1-.013.093.157.157,0,0,1-.085.013v-.106Zm-.1-1.414v.106a.239.239,0,0,0-.042-.14q-.042-.06.042-.06Zm0-.547c.029,0,.056.022.085.066a.216.216,0,0,1,.013.067h-.1Zm0,.226c-.047.045-.079.058-.1.04a.049.049,0,0,1-.014-.04ZM27.182,24.5a.222.222,0,0,1-.014.067,1.3,1.3,0,0,1-.085.16L27.07,24.5Zm-.1.72a.078.078,0,0,1,.085-.066.845.845,0,0,1-.014.153.079.079,0,0,1-.084.073A.827.827,0,0,1,27.083,25.219Zm-.026.28c.008,0,.013.027.013.081h-.1C27.021,25.526,27.049,25.5,27.057,25.5Zm-.24-1.307a.137.137,0,0,1,.014.08.052.052,0,0,1-.014.04c-.029.027-.062.014-.1-.04v-.093A.2.2,0,0,1,26.817,24.192Zm-.2-.347h.1a.215.215,0,0,1-.014.107.153.153,0,0,1-.084.013Zm0,1.628v.107a.1.1,0,0,1-.1-.054.113.113,0,0,1-.014-.053Zm-.239-1.508a.132.132,0,0,1,.056.014.1.1,0,0,1-.056.2Zm0,.427a.114.114,0,0,1,.112.054.117.117,0,0,1,.014.053h-.126Zm-.212.987.113.094h-.113Zm0,1.175a.105.105,0,0,1-.014.053.116.116,0,0,1-.112.053v-.106Zm-.337,2.054h-.127l.127-.12Zm-.123.32h.123v.107a.232.232,0,0,1-.109-.013C25.713,29.013,25.709,28.982,25.709,28.928Zm.053.681c.046.026.07.053.07.08h-.127V29.6A.133.133,0,0,1,25.762,29.609Zm.07-2.4.1-.12v.12Zm.014-.6a.09.09,0,0,1,.084-.053v.106c-.028.036-.047.054-.056.054a.04.04,0,0,1-.028-.014.052.052,0,0,1-.014-.04A.117.117,0,0,1,25.846,26.607Zm-.126.387a.233.233,0,0,1,.112-.014v.107h-.127Q25.705,27.008,25.72,26.994Zm-.113.707a.1.1,0,0,1,.1-.054v.094h-.112A.105.105,0,0,1,25.607,27.7Zm-.127,1.014a.215.215,0,0,1,.1.013.175.175,0,0,1,.014.094H25.48Zm.014.72c.019-.017.052,0,.1.04H25.48A.056.056,0,0,1,25.494,29.435Zm-.464,2.749c-.056-.045-.07-.08-.042-.107a.059.059,0,0,1,.042-.013Zm.1-1.308h-.1c.047,0,.075,0,.084-.013s.015-.035.015-.08Zm.112-.2a.216.216,0,0,1-.056.04c-.038.018-.056,0-.056-.04h.112v-.133a.12.12,0,0,0,.056.12.167.167,0,0,0,.071.013Zm.127,1.388c0-.054,0-.081.014-.081a.384.384,0,0,1,.1.081Zm.548-1.294a.161.161,0,0,1-.084.013.117.117,0,0,1-.014.053.13.13,0,0,1-.113.04v-.093a.143.143,0,0,1-.056-.013.1.1,0,0,1-.056-.094.175.175,0,0,1-.014.094.215.215,0,0,1-.1.013v-.107h.225a.17.17,0,0,1-.042-.067q-.042-.066.042-.066c.066,0,.1.026.113.08a.961.961,0,0,1,.014.16v-.107h.1C25.93,30.73,25.926,30.761,25.916,30.77Zm.014-.748h-.1a.213.213,0,0,1,.014-.106.147.147,0,0,1,.084-.014Zm-.084-.84c-.009.027-.014.013-.014-.04q-.1,0-.1-.054c0-.034.034-.052.1-.052v.106h.1C25.883,29.142,25.855,29.155,25.846,29.182Zm.436.707a.641.641,0,0,1-.113-.094.3.3,0,0,1,.113.014.466.466,0,0,1,.1.093A.253.253,0,0,1,26.282,29.889Zm.126.44c-.065-.018-.075-.053-.027-.107.065-.053.1-.062.112-.026a.616.616,0,0,1,.014.147A.333.333,0,0,1,26.408,30.329Zm.212-.107a.08.08,0,0,1,.084.074c0,.015,0,.029,0,.044a.112.112,0,0,1-.047-.011C26.634,30.32,26.62,30.285,26.62,30.222ZM27.2,29.3a.844.844,0,0,1-.243.18.311.311,0,0,1-.242.08.278.278,0,0,1-.214-.186c-.111-.063-.176-.125-.194-.187a.9.9,0,0,1-.028-.254c.047-.266.1-.529.162-.787s.119-.5.176-.734V26.66h.211a2.061,2.061,0,0,0,.079.534c.053.2.107.378.16.547v.12c0,.107,0,.213.013.32a.9.9,0,0,0,.085.307c0,.062,0,.142.014.24a.715.715,0,0,0,.113.307A.369.369,0,0,1,27.2,29.3Zm.319.3h.11c0,.045,0,.067-.012.067A.412.412,0,0,1,27.522,29.6Zm.138.094a.349.349,0,0,0,.155-.034c.047-.022.071-.011.071.034V29.8a.114.114,0,0,1-.113-.053A.117.117,0,0,0,27.66,29.689Zm.223,1.414c.048,0,.077-.015.086-.047s.015-.015.015.047Zm.1-.427v-.133a.128.128,0,0,1,.112.066.222.222,0,0,1,.014.067Zm.464.52h-.113c.057-.035.089-.048.1-.04A.056.056,0,0,1,28.448,31.2Zm-.113-.76v.107a.059.059,0,0,1-.042-.014Q28.251,30.49,28.335,30.436Zm.226,1.748v-.12l.112.12Zm0-.721c-.02.027-.057.014-.113-.04,0-.062.023-.078.07-.047a.269.269,0,0,0,.155.047A.13.13,0,0,0,28.561,31.463Z"/><path d="M26.775,16.63a.445.445,0,0,0-.084-.227V16.2a.421.421,0,0,0,.114-.211c0-.026-.013-.053-.015-.076-.013-.177-.08-.193-.111-.28s-.1-.089-.157-.116-.1-.11-.2-.151a.887.887,0,0,0-.352,0v.073h-.112a.086.086,0,0,1,.007-.025.657.657,0,0,0-.162.132.626.626,0,0,0-.2.444v.75a.4.4,0,0,1,.043.307c-.029.107-.043.018-.043.133v.561c.057.053.085.089.085.107s-.028.053-.085.106v2.922a3.558,3.558,0,0,1-.042.567,1.009,1.009,0,0,0,.042.5.394.394,0,0,1,.115.166.406.406,0,0,0,.115.167.341.341,0,0,0,.18.093.493.493,0,0,0,.18-.006,1.276,1.276,0,0,0,.173-.054.477.477,0,0,1,.172-.033.411.411,0,0,0,.23-.18c.029-.067.067-.153.115-.26V20.98a.678.678,0,0,1-.07-.254.306.306,0,0,1,.07-.186v-.761a.99.99,0,0,1-.084-.307c-.01-.1-.014-.173-.014-.227a1.132,1.132,0,0,0,.084-.333c.009-.107.014-.209.014-.307a2.3,2.3,0,0,1-.084-.44c-.01-.125-.014-.267-.014-.427a1.2,1.2,0,0,0,.084-.28c.009-.071.014.04.014-.067a.9.9,0,0,0-.035-.24.531.531,0,0,1,.035-.321C26.789,16.786,26.784,16.719,26.775,16.63Zm-.464-.74a.173.173,0,0,1,.014.093.1.1,0,0,1-.1-.053.107.107,0,0,1-.015-.053A.2.2,0,0,1,26.311,15.89Zm-.221-.454.118.107v.12l-.118-.12Zm.193.981c.019.009.028.044.028.107l.014.106a.094.094,0,0,0-.058-.093.143.143,0,0,0-.059-.013L26.09,16.4A.7.7,0,0,1,26.283,16.417ZM26.1,17.751a.207.207,0,0,1,.1-.013.38.38,0,0,1-.084-.093c0-.009.028-.014.084-.014a.057.057,0,0,0-.042.014c-.019.018,0,.048.042.093v.107h-.112C26.086,17.791,26.09,17.76,26.1,17.751Zm.1.307a.083.083,0,0,1-.07.093c-.013,0-.029,0-.042,0a.176.176,0,0,1,.013-.084A.215.215,0,0,1,26.2,18.058Zm-.23.44v-.106c0-.062.005-.1.015-.107a.206.206,0,0,1,.1-.014.215.215,0,0,1-.014.107.209.209,0,0,1-.1.014h.117c.057.053.066.084.028.093a.647.647,0,0,1-.145.013l.117.107v.107a.121.121,0,0,0-.014-.054.109.109,0,0,0-.1-.053Zm.113,2.789a.234.234,0,0,1-.056.04c-.038.018-.057,0-.057-.04a.115.115,0,0,0,.1-.04.121.121,0,0,0,.014-.054Zm-.113-1.828v-.107a.057.057,0,0,1,.042.014Q26.043,19.392,25.973,19.459Zm0-.294c-.018.036-.056.027-.112-.026.112-.062.169-.107.169-.134s-.057-.093-.169-.2c.112,0,.178.023.2.067a.367.367,0,0,1,.028.147.306.306,0,0,1,.112.013.564.564,0,0,1,.113.107c-.056.053-.094.062-.113.026a.848.848,0,0,0-.112-.146A.866.866,0,0,0,25.973,19.165Zm.235,1.815a.1.1,0,0,1-.1-.054.1.1,0,0,1-.015-.053h.113Zm0-.681c-.02,0-.06-.026-.12-.08h.239C26.269,20.273,26.23,20.3,26.21,20.3Zm.1,1.108.014-.12a.558.558,0,0,1,.042.066C26.386,21.389,26.367,21.407,26.311,21.407Z"/><path d="M27.4,13.356l-.864-.126-.073-.148a.157.157,0,0,1-.067.011.139.139,0,0,1,.017-.064c.005-.01.011-.007.016-.015l-.279-.566-.23.465.016.035a.257.257,0,0,1-.017.129.2.2,0,0,1-.087.014l-.012.024-.025.051a.2.2,0,0,1,.015.057h-.043l0,.007h0l-.208.031c0,.033,0,.075-.011.075a.539.539,0,0,1-.076-.063l-.568.083.625.609-.148.86.03-.173v.158l-.03.015.773-.406.772.406-.147-.86Zm-.458.215a.092.092,0,0,1,.1-.073v-.129a.124.124,0,0,1,.119.064.143.143,0,0,1,.017.065h-.12c.069.054.063.092-.016.113a.142.142,0,0,0-.12.146A.86.86,0,0,1,26.944,13.571ZM25.409,13.5a.185.185,0,0,1-.068-.065c-.023-.043,0-.064.068-.064Zm.25.259V13.5a.158.158,0,0,1,.049.178A.207.207,0,0,1,25.659,13.757Zm.484.145a.108.108,0,0,0-.052.1v-.114h.122A.178.178,0,0,0,26.143,13.9Zm.151-.695a.244.244,0,0,1-.083.016c0-.065.031-.086.093-.065a.077.077,0,0,0,.07,0A.169.169,0,0,1,26.294,13.207Zm.188,1.386-.043-.023L26.4,14.5v-.113c.057,0,.088.005.094.016a.287.287,0,0,1,.009.1Zm.053-.941c0,.016-.011.024-.034.024v-.065h-.1V13.5a.1.1,0,0,1,.086.065.125.125,0,0,1,.017.048h.051A.052.052,0,0,0,26.535,13.652Zm.137.073c0-.022,0-.033.008-.033s.008-.005.008-.016A.122.122,0,0,1,26.672,13.725Z"/><path d="M12.569,29.631c.006-.048-.012-.118.033-.128v.128c.007,0,.007,0,.013,0,0-.05,0-.1-.01-.15-.009,0-.014-.006-.024-.006a.636.636,0,0,0-.076.09C12.511,29.6,12.526,29.628,12.569,29.631Z"/><path d="M12.669,35.893a.256.256,0,0,1,.143.022l2.76-1.841h0c.066-.044.059-.071.057-.085s.024,0,0-.039-.088-.036-.088-.036l0-.008A1.575,1.575,0,0,1,15.1,33.8l-.118-.05-.1-.079c-.1-.078.01-.065-.069-.155L14.8,33.5l0,0s-.042-.032-.071-.049-.087.012-.087.012h0a.226.226,0,0,1-.029.023l-.026.034-.019.009a.817.817,0,0,1,.012.126c-.054,0-.082-.036-.1-.084l-.445.216c-.322.269-.559.177-.957.21-.072.006-.2-.048-.272-.048a2.71,2.71,0,0,1-.714-.1q-.291-.072-.567-.167c-.247-.084-.286-.21-.512-.374l-.021-.015-.02-.017a1.45,1.45,0,0,1-.277-.294.308.308,0,0,1-.161.029c-.015-.067.022-.085.033-.128a.076.076,0,0,1,.065.011c-.017-.033-.033-.065-.046-.1a1.033,1.033,0,0,1-.14-.655,2.181,2.181,0,0,1,.278-1.009l.1-.233.35-.276a2.421,2.421,0,0,1,.551-.275.123.123,0,0,1-.056-.043h.2v0c.054-.01.109-.014.164-.019.029-.011.071-.009.072-.048.024,0,.027.021.037.035h.012a1.417,1.417,0,0,1,.214.032.2.2,0,0,1,.028-.012.236.236,0,0,0,.146-.031c.045-.02.055-.108.055-.108l.012,0a1.436,1.436,0,0,1,.019-.159.316.316,0,0,0,.011-.075c0-.012,0-.024,0-.036a1.065,1.065,0,0,1-.2.006.37.37,0,0,1,.071-.326.444.444,0,0,1,0-.091c.028,0,.054,0,.079,0,.006-.006.016-.009.022-.015v0a2.212,2.212,0,0,1,.007-.661,1.13,1.13,0,0,1-.055-.365,1.1,1.1,0,0,1,.08-.388V26.988c0-.221-.013-.418-.029-.608-.006-.029-.03-.032-.044-.048s-.055-.015-.055-.015l0,0c-.023,0-.043.007-.069.009l-.067,0h-.028a2.144,2.144,0,0,1-.607-.1l-.04-.012-.039-.015a3.1,3.1,0,0,1-.386-.2L11.24,26s-.037-.013-.105-.04-.064.012-.1.018-.056.37-.056.371L7.609,38.338a.5.5,0,0,0,.751.546l4.355-2.9A.093.093,0,0,1,12.669,35.893Zm.669-1.026c.024.087-.067.065-.067.128-.059-.008-.077-.055-.067-.128ZM12.2,28.189c-.039-.048-.139-.038-.134-.129C12.172,28.046,12.217,28.088,12.2,28.189Zm-.368-.641c-.05.1-.147-.027-.234,0C11.62,27.479,11.805,27.517,11.833,27.548Zm-.6-.962v.128a.152.152,0,0,1-.134-.128Zm-.57,1.378a.152.152,0,0,1,0,.193c-.132.019-.148-.072-.167-.16C10.575,28.009,10.568,27.938,10.662,27.964ZM8.99,34.9c.049.1-.248.1-.2,0C8.8,34.828,8.967,34.874,8.99,34.9Zm-.5.961a.226.226,0,0,1,.167.033C8.681,36.037,8.433,36.013,8.489,35.86Zm.134,1.8c.1-.007.182,0,.167.1C8.705,37.748,8.618,37.745,8.623,37.656Zm.068.32c-.05-.13.312-.145.3-.032C8.811,37.935,8.815,37.917,8.691,37.976Zm.4-2.211c.107-.028.1.05.167.063C9.235,35.9,9.068,35.844,9.092,35.765Zm.167-.353c-.1,0-.089-.191.034-.16A.2.2,0,0,1,9.259,35.412Zm.1-2.18a.1.1,0,0,1,.167-.032C9.538,33.3,9.364,33.331,9.358,33.232Zm.034.161c.105.016.136-.076.167.032C9.462,33.43,9.406,33.555,9.392,33.393Zm.469-.706c.078-.077.089.05.167.065C10.02,32.807,9.839,32.765,9.861,32.687Zm.066,4.007c.077-.048.051-.079.033-.16C10.141,36.525,9.992,36.784,9.927,36.694Zm.168-6.711c-.019-.114.1-.1.2-.1C10.288,30.042,10.2,29.918,10.1,29.983Zm.267,7a.226.226,0,0,1-.167-.032C10.2,36.852,10.375,36.883,10.362,36.982Zm-.133.385c-.024-.087.157.023.133-.064a.088.088,0,0,1,.067.1C10.361,37.467,10.3,37.39,10.229,37.367Zm.167-3.814c-.13-.045.242-.138.2,0C10.5,33.531,10.431,33.514,10.4,33.553Zm.166,1.987c.042-.044.164-.05.167.032A.109.109,0,0,1,10.562,35.54Zm.334,1.507c.017-.078.095-.166.167-.1C11.068,37.041,10.981,37.043,10.9,37.047Zm-.032-1.571a1.474,1.474,0,0,1-.034-.321c.073-.027.114-.083.234-.064C11.107,35.227,10.978,35.392,10.864,35.476ZM11.33,34.1c.005-.093-.092-.25,0-.321C11.312,33.942,11.456,33.992,11.33,34.1Zm.1.352a.2.2,0,0,1,.167.193C11.545,34.577,11.447,34.554,11.432,34.45Zm.836-.256c-.04.133-.115-.025-.2-.032C12.1,34.086,12.214,34.188,12.268,34.194Zm0,1.7c-.059-.008-.077-.056-.067-.128h.1C12.315,35.831,12.278,35.849,12.268,35.893Z"/><path d="M26.154,33.8l0,0a.152.152,0,0,0,.112.108s.014,0,.019,0V33.8Z"/><path d="M33.27,37.023l-.017-.06a.11.11,0,0,0-.019.07C33.253,37.036,33.258,37.026,33.27,37.023Z"/><path d="M33.371,37.383a2.211,2.211,0,0,0-.471-.318c.028-.133.214-.115.334-.16.018.021.013.027.013.036l-.7-2.5a.133.133,0,0,1-.046-.1.061.061,0,0,0,.02.009l-.056-.2c-.019.027-.036.054,0,.061-.008.034-.066.022-.067.064-.124,0,0-.125-.066-.128.005-.078.106-.014.13,0l-.964-3.43c-.067.008-.124-.062-.137-.126a.2.2,0,0,1,.105.012l-1.608-5.721L31.2,23.825v-.013s.09-.058.1-.114-.056-.108-.056-.108v0c-.009-.006-.021-.008-.03-.014a1.835,1.835,0,0,1-.5-.375,1.274,1.274,0,0,1-.108-.146l-.036-.026s-.077-.064-.108-.064-.075.052-.075.052l-.013-.006a1.71,1.71,0,0,1-.322.4,1.066,1.066,0,0,1-.411.316,1.1,1.1,0,0,1-.443.095h-.08L29.03,23.8l-.036-.008h-.006c-.159,0-.02.05-.134.05s-.1.132-.1.132V24.1a.734.734,0,0,0,.015.166,2.485,2.485,0,0,1,.079.581,1.2,1.2,0,0,1,.214.523v0c.051.011.069.055.06.123-.022,0-.034,0-.051,0,.006.065.014.12.015.208a2.942,2.942,0,0,1,.1.422,2.729,2.729,0,0,0,.072.309l.038.131v.451c.021,0,.032-.015.058-.012a.3.3,0,0,1-.027.176c.044.212.088.422.127.621.051.257.106.5.165.734l.01.038.006.038c.049.289.117.6.2.918.1.375.176.732.234,1.061l.014.082v.084a.338.338,0,0,0,.011.1l.152.426.034.1c.006-.014,0-.039.01-.051a.22.22,0,0,0,.167,0c.054.126-.144.011-.133.1.041,0,.079.01.066.064H30.3v.071l.006,0,.082.3a1.723,1.723,0,0,1,.018.932,2.246,2.246,0,0,1-.248.562l-.066.108L30,33.551c-.076.073-.153.14-.228.2a2.068,2.068,0,0,1-.514.291.213.213,0,0,1-.308.076c-.013,0-.028.006-.04.006a2.3,2.3,0,0,1-1.207-.317c-.035-.024-.07-.058-.105-.087a.089.089,0,0,1-.082-.019c0-.017.009-.025.01-.04a2.24,2.24,0,0,1-.548-.79.3.3,0,0,1-.035-.026.177.177,0,0,0-.052-.073c-.013-.012-.027-.034-.055-.032s-.063.062-.063.062l-.055.123-.014.107a1.041,1.041,0,0,1-.233.423c.036.014.18-.029.275-.011,0,.131-.223.038-.327.064a1.752,1.752,0,0,1-.572.343,1.988,1.988,0,0,1-.323.083h0a.128.128,0,0,0-.106.114c-.008.1.05.113.053.144a.268.268,0,0,0,.021.043l1.085.7a.128.128,0,0,1,.1-.053c.012.055,0,.084-.032.1l.43.278c.077-.215.456-.291.7-.379.056.282-.477.274-.669.4l.734.476c.029.006.055.015.062.041l5,3.246a.507.507,0,0,0,.769-.559ZM30.66,23.411h.1v.129h-.133C30.622,23.482,30.668,23.472,30.66,23.411Zm.034.321c-.07.093-.2.041-.268.032C30.429,23.666,30.645,23.689,30.694,23.732Zm-1.2,1.058c-.061.041-.169-.029-.268.031.008-.11.1-.139.2-.16C29.381,24.765,29.53,24.686,29.489,24.79Zm.436,1.025h.1c.012.055-.026.061-.067.064-.02.116.1.095.1.193-.044-.033-.124-.032-.168-.065C29.867,25.909,29.925,25.89,29.925,25.815Zm-.234,2.821v-.161h.1C29.8,28.567,29.8,28.65,29.691,28.636Zm.1-1.763c-.107-.1.064-.262.167-.161C29.93,26.793,29.913,26.884,29.79,26.873Zm.167.128c.132.054.1.054.234,0,0,.08-.063.1,0,.16C30.027,27.19,30.029,27.06,29.957,27Zm.369.352c-.07.114,0,.059.067.1-.04.133-.166,0-.268,0C30.146,27.314,30.2,27.332,30.326,27.353Zm-.134,2.853c-.057-.178.179-.19.268-.128C30.319,30.108,30.275,30.087,30.192,30.206ZM25.945,34.5c.083-.072.257-.087.268.064C26.112,34.555,25.953,34.6,25.945,34.5Zm.336-.6v.021c-.01,0-.01-.014-.019-.017a.119.119,0,0,1-.083.017c-.059-.053-.053-.094-.029-.125l0,0h.007a.16.16,0,0,1,.259.064A.214.214,0,0,0,26.281,33.9Zm.836-.043c-.11.033-.256-.124-.234.064-.1-.039,0-.144-.1-.224.177-.155.69-.1.635.256C27.31,34.059,27.04,33.994,27.117,33.86Zm.334.609c.006-.09.058-.137.167-.128C27.575,34.4,27.549,34.467,27.451,34.469Zm.266.257c-.014-.062-.129-.026-.1-.129h.1C27.685,34.657,27.817,34.705,27.717,34.726Zm.3.961a.123.123,0,0,1,.134.128C28.048,35.83,28,35.788,28.019,35.687Zm.868.481c-.01-.085.047-.1.134-.1C29.048,36.186,28.95,36.231,28.887,36.168Zm.4-.032c-.113-.091.133-.107.2-.128v.128C29.446,36.091,29.313,36.021,29.289,36.136Zm.066.16v-.064c.038-.085.13.043.167.064Zm.067-1.346c.125.034.108-.068.167-.1C29.622,34.979,29.454,35.076,29.422,34.95Zm.4,1.122c-.032-.118.165-.128.167-.032A.23.23,0,0,1,29.823,36.072Zm-.1-.9c.025-.072.188-.012.268-.032C30,35.312,29.8,35.2,29.724,35.174Zm1.4-4.936a.4.4,0,0,1-.167-.16C31.08,30.071,31.136,30.124,31.128,30.238Zm-.4,1.571c.1,0,.22-.019.2.1-.169-.059-.077.031-.2.064Zm-.5,2.724c-.034.085-.134.107-.167.193C29.957,34.614,30.136,34.564,30.224,34.533Zm-.1,1.378c.063-.062.122-.009.2,0C30.338,36.068,30.144,35.99,30.124,35.911Zm.267-1.057c-.007-.026-.028-.038-.066-.032-.031-.137.08-.137.2-.129A.29.29,0,0,1,30.391,34.854Zm.47.224v.192c-.188,0-.146-.029-.334-.032C30.542,35.093,30.675,35.06,30.861,35.078Zm-.035,2.244a.22.22,0,0,1,.167.032C31.018,37.476,30.777,37.423,30.826,37.322Zm.3-1.154c.088-.01.11.044.1.128C31.138,36.294,31.068,36.223,31.128,36.168Zm.2-3.045v-.1c.063-.007.073.036.133.032C31.5,33.155,31.387,33.115,31.328,33.123Zm-.066-.16c.072-.071-.009-.069-.1-.065.052-.1.3-.069.3.065Zm.6,1.634c-.028-.256.461-.028.233.064C32.128,34.563,31.974,34.481,31.863,34.6Zm.2,3.718v-.16c.043-.044.158-.02.2-.064-.025.087.066.064.067.128C32.183,38.112,32.136,38.2,32.063,38.315Zm.235-1.378c-.055-.064,0-.041,0-.128h.1C32.408,36.893,32.386,36.947,32.3,36.937Zm.534-.7h.1c-.007.061.038.07.034.128a.159.159,0,0,0-.1.032C32.893,36.3,32.818,36.309,32.832,36.232Zm.737,2.308c-.033,0-.026-.04-.034-.065-.039-.005-.059.007-.067.033-.028,0-.031-.013-.033-.033v-.064c.1-.015.131.046.2.064C33.627,38.51,33.569,38.5,33.569,38.54Z"/><path d="M40.58,14.613l-6.65-.267a.246.246,0,0,0-.188.057c-.062.07-.042,0-.1.113a.338.338,0,0,0-.056.228v.118l-.016.031a1.888,1.888,0,0,1,.016.253v5.677l-.025.048c0,.028,0,.057.007.085l0,0a.234.234,0,0,0,.05.094c.035.038.1.014.12.014a.266.266,0,0,0,.185-.077l6.94-5.48A.5.5,0,0,0,40.58,14.613Zm-1.7.278c.014.062.13.025.1.128h-.168C38.809,14.946,38.826,14.9,38.885,14.891Zm-3.977.032c-.1-.086-.213.008-.3.032C34.6,14.814,34.911,14.7,34.908,14.923Zm-.837,4.808c.032-.1-.122-.18-.234-.064C33.81,19.41,34.3,19.639,34.071,19.731Zm0-2.757c-.017-.093.154-.17.2-.1C34.2,16.907,34.173,16.976,34.071,16.974Zm.369,2.308c-.008.035-.066.022-.067.064-.124,0,0-.125-.066-.128,0-.08.113-.009.133,0C34.42,19.247,34.4,19.275,34.44,19.282Zm.034.128c.05.049.191.01.167.128C34.532,19.547,34.48,19.5,34.474,19.41Zm-.034-4.263c.106-.015.118.058.234.032A.119.119,0,0,1,34.44,15.147Zm.367,4.231c.026-.007.039-.027.033-.064.076-.009.126.008.134.064C34.951,19.442,34.822,19.48,34.807,19.378Zm.368-2.308c-.064-.014-.2.044-.168-.064h.168Zm.066,1.122c-.015-.1.029-.143.134-.128A.123.123,0,0,1,35.241,18.192Zm.2-1.987c.048-.049.174-.031.167.064C35.547,16.255,35.409,16.313,35.443,16.2Zm.166-.192c-.063.007-.074-.036-.134-.032.019-.089.036-.18.167-.161C35.593,15.918,35.653,15.945,35.609,16.013Zm.2-1.346h.1c-.036.082.144.112.033.16C35.91,14.763,35.8,14.776,35.81,14.667Zm.234.32c-.076-.015.076.174-.034.192C35.953,15.162,35.959,14.86,36.044,14.987Zm.1.289c.046.073-.086.12,0,.128-.042.1-.136-.071-.067-.1h-.1C35.972,15.238,36.1,15.293,36.145,15.276Zm-.1,2.6c0-.046,0-.091-.033-.1.01-.044.083-.027.133-.033,0,.058.041.068.034.129Zm.266-2.5a.2.2,0,0,0-.033-.161h.1C36.416,15.305,36.4,15.33,36.311,15.372Zm.368,1.538c-.077.034-.2.021-.268.064C36.435,16.892,36.638,16.781,36.679,16.91Zm.033,1.827c-.068-.052-.2-.047-.2-.16C36.613,18.6,36.8,18.641,36.712,18.737Zm.1-3.558h.133a.149.149,0,0,0,.034.1C36.884,15.282,36.8,15.279,36.813,15.179Zm.134,3.206a.292.292,0,0,1,.2-.032C37.2,18.463,36.924,18.505,36.947,18.385Zm.233-3.334c.109-.046.357-.131.4.032-.148-.014-.176.087-.267.128C37.28,15.147,37.166,15.161,37.18,15.051Zm.268,1.41a.15.15,0,0,1,.093-.075c-.057.048-.156.046-.159-.053a.3.3,0,0,1,.2-.032.1.1,0,0,1-.027.072c.05-.016.107-.026.159-.04C37.676,16.424,37.579,16.46,37.448,16.461Zm.668-.544c-.018-.163.3-.11.3,0A.4.4,0,0,1,38.116,15.917Zm.87.576c-.095.027-.087-.045-.168-.032.01-.108.041-.2.168-.192C38.956,16.386,39.044,16.44,38.986,16.493Zm0-1.762c0-.064-.092-.041-.067-.129.042,0,.046-.041.1-.032C39.065,14.611,39.071,14.727,38.986,14.731Zm.234.416c.048-.043.264-.065.267.032C39.438,15.223,39.222,15.245,39.22,15.147Z"/><path d="M23.259,6.333h-.051a.093.093,0,0,1,.015-.1l-1.554-4.2v0c-.064-.013-.144-.011-.134-.1h.1L21.03.307c-.05.01-.138-.049-.2-.032a.088.088,0,0,1,.1-.089L20.919.162a.078.078,0,0,1-.053.017A.941.941,0,0,0,20.453,0a.475.475,0,0,0-.373.3L18.773,3.833a.094.094,0,0,1,.054.1.163.163,0,0,0-.1.032h0l-.23.623a.233.233,0,0,1,.131-.077.514.514,0,0,1,.066.224c-.172-.029-.175-.022-.234.1a.222.222,0,0,1-.021-.088l-1.19,3.217s-.133.332.151.3h0a1.718,1.718,0,0,1,.274-.027h.007c.068,0,.132,0,.194-.005.051-.086.2-.079.249-.165.015.092.144.076.167.16-.04.011-.068.017-.1.023.036,0,.077,0,.112.007a3.1,3.1,0,0,1,.52.117,2.672,2.672,0,0,1,.8.352,1.7,1.7,0,0,1,.206.041,1.248,1.248,0,0,1,.487.25l.061.022a2.984,2.984,0,0,1,.324.15c.077.041.157.084.238.129l.083.026.161.048a2.84,2.84,0,0,1,.315.117,1.333,1.333,0,0,1,.237.07l.155.035.142.032h.536s.161.039.191.039c.074,0,.475-.039.6-.039a1.549,1.549,0,0,1,.45.063,1.4,1.4,0,0,1,.192-.029l.015-.017.212-.017s.248,0,.147-.274h0ZM17.725,8.064c.027-.073.207-.031.167.064C17.786,8.156,17.789,8.078,17.725,8.064Zm.367-.673c.066-.067.142,0,.167.064C18.176,7.46,18.1,7.461,18.092,7.391Zm3.309-4.9v.192c-.092.039-.139.07-.234.032C21.194,2.587,21.3,2.541,21.4,2.487ZM21.369,5.5v.128c-.025-.051-.164.007-.134-.1A.192.192,0,0,1,21.369,5.5Zm-.535-3.782c-.126.046-.064-.088-.167-.064C20.686,1.54,20.824,1.637,20.834,1.718Zm-.235.705c.137-.019.158-.148.3-.16.023.139-.06.177-.134.224-.008-.035-.055-.077-.067-.032.038.007.052.036.067.064-.24-.018.075.142-.1.16-.007-.025-.028-.037-.067-.032A.471.471,0,0,0,20.6,2.423Zm.334.128c.016.1-.029.143-.133.128C20.811,2.605,20.821,2.529,20.933,2.551Zm-.2.577c0,.149-.167.149-.168,0ZM20.6,3.064c-.134-.076-.082.051-.2.064C20.305,3.008,20.578,2.839,20.6,3.064Zm-.267-1.09c.009.066.124.03.133.1-.066,0-.042.088-.133.064C20.312,2.115,20.253,1.982,20.332,1.974Zm-.066.192c.091-.023.067.064.134.065-.029.093-.051.036-.134.032Zm-.2.9V2.936c.1.046.114-.027.2.032C20.266,3.065,20.147,3.048,20.064,3.064Zm.1,1.314A.226.226,0,0,1,20,4.346c.061-.093.007-.146.1-.16C20.117,4.253,20.18,4.277,20.164,4.378Zm-.033-1.731c-.067.055-.17-.05-.2-.128A.84.84,0,0,1,20.131,2.647Zm-.3-.545c.126-.016.152-.04.2.064C19.949,2.192,19.838,2.222,19.83,2.1Zm.067-.961c.01.084-.047.1-.134.1C19.73,1.13,19.809,1.132,19.9,1.141Zm.1.16c-.051.053-.285.161-.267,0A.525.525,0,0,1,20,1.3Zm-.135,3.077c0,.095-.154.109-.2.064C19.652,4.3,19.785,4.355,19.863,4.378Zm-.433-.8a.691.691,0,0,0-.067.192.163.163,0,0,0-.1-.032A.156.156,0,0,1,19.43,3.577Zm-.737.641a.223.223,0,0,1,.168-.032C18.92,4.329,18.684,4.3,18.693,4.218Zm.268,3.654c.008.046.055.054.066.1C18.945,8.071,18.821,7.893,18.961,7.872Zm.167.1c.027-.111-.063-.136,0-.193h.1C19.239,7.882,19.154,7.9,19.128,7.968Zm.134-.93c-.01-.084.046-.105.133-.1C19.393,7.028,19.319,7.1,19.262,7.038Zm.167,1.09c.006-.09.058-.136.167-.128C19.584,8.085,19.508,8.108,19.429,8.128Zm-.067-5.513c.082.028.231-.008.234.1C19.48,2.715,19.439,2.649,19.362,2.615Zm.269,3.077c-.066-.034.1-.116.167-.128,0,.057-.041.068-.034.128a.215.215,0,0,1,.268-.032C19.922,5.789,19.706,5.65,19.631,5.692Zm.2.128c-.012-.139.161-.049.167-.1.019.036.062.175.2.1.025.1-.115.039-.067.161C20.027,5.932,19.969,5.838,19.831,5.82ZM19.9,7.551c.036-.023.154-.125.2-.032C20.043,7.524,19.925,7.627,19.9,7.551Zm.2.705h.1c-.027.168.071.015.134.1C20.3,8.565,20.136,8.33,20.1,8.256Zm.4-2.211c-.124-.019-.194.1-.268.032.053-.046.117-.081.134-.16.023-.062.052.034,0,.032C20.356,6.034,20.553,5.919,20.5,6.045ZM20.466,5.4c-.064.013,0,.146-.133.1.05-.1-.011-.125.033-.192.05.048.191.009.167.128C20.494,5.441,20.474,5.429,20.466,5.4Zm.066-1.891c.027-.111-.062-.136,0-.193.05.009.242.041.134.1C20.616,3.32,20.606,3.526,20.532,3.513Zm.067,0c.085,0,.172.006.167.1-.087-.019-.12.013-.1.1.057.012.085-.048.1,0-.048.007-.056.053-.1.064A.343.343,0,0,1,20.6,3.513Zm.1,1.763c.007-.057.057-.074.133-.065V5.34C20.743,5.363,20.767,5.276,20.7,5.276Zm.266,2.371c-.016-.072-.289-.062-.167-.16C20.791,7.582,21.1,7.536,20.967,7.647ZM21,7.423c-.1.022-.157-.167-.1-.192.005.037.053.034.1.032ZM20.734,5.66c.03-.12.2-.1.2-.256.095-.027.087.045.167.032C20.98,5.511,20.851,5.58,20.734,5.66Zm.333,1.955c.049-.017.084-.047.134-.064a.262.262,0,0,1,.033.192C21.125,7.752,21.073,7.705,21.067,7.615Zm.234-.128c-.091-.123-.163-.071-.234-.192a.659.659,0,0,1,.234.1C21.249,7.4,21.278,7.461,21.3,7.487Zm0-.833c.045-.01.064-.046.134-.032-.038.1.009.084-.034.16C21.313,6.792,21.292,6.737,21.3,6.654Zm.167.737c-.047.2.2.113.234.224h-.234C21.462,7.561,21.318,7.392,21.468,7.391Zm.067,1.346c-.014-.061-.1-.058-.067-.16.043,0,.046-.041.1-.032C21.5,8.627,21.6,8.692,21.535,8.737Zm.033-.769c.132-.02.174.047.235.1C21.7,8.055,21.574,8.069,21.568,7.968ZM21.9,4.314c-.094-.027-.086.045-.166.032V4.218c.106.019.1-.06.166,0Zm.8,2.756c-.019.078-.029.165-.134.161-.017-.048-.049-.081-.067-.129C22.556,7.064,22.635,7,22.705,7.07Zm-.568,1.411c.042-.045.157-.02.2-.065C22.361,8.506,22.171,8.552,22.137,8.481Zm.134-3.654c.049-.049.385.021.267.128C22.479,4.884,22.357,4.872,22.271,4.827Zm.4,3.494c-.064-.015-.2.043-.168-.065h.168Zm.033-.225c-.136.019-.106-.132-.033-.16C22.7,7.992,22.778,8.029,22.705,8.1Zm0-1.987c.063-.082.251-.136.3,0C22.858,6.037,22.84,6.2,22.706,6.109Zm.3.8c-.084,0-.105-.049-.134-.1.22-.025-.146-.08,0-.128.022.1.072-.031.134,0C22.978,6.8,23.081,6.841,23.006,6.91Zm.4,1.859c0-.042-.059-.029-.067-.064.048-.008.057-.053.1-.064,0,.057.034.075.1.064,0-.032-.027-.038-.034-.064h.1C23.619,8.759,23.486,8.738,23.407,8.769Zm.134-.641c-.114-.159.067-.38.2-.224C23.658,7.989,23.756,8.128,23.541,8.128Z"/><path d="M2.648,15.949a.129.129,0,0,0,.01.035.3.3,0,0,1,.035-.022C2.678,15.957,2.663,15.955,2.648,15.949Z"/><polygon points="5.121 18.833 5.121 18.833 5.121 18.833 5.121 18.833"/><path d="M5.456,19.474c.185.032,0,.149.167.128.008.062-.028.083-.077.09l.206.163c.159.111.182-.08.182-.08v-.016l.09-.136v-.117h.05a4.013,4.013,0,0,1,.106-.528.711.711,0,0,0,.016-.126c0-.132.011-.269.021-.414s.027-.308.048-.452a2.009,2.009,0,0,1,.165-.559c.041-.127.08-.262.118-.405a1.153,1.153,0,0,0,.042-.291v-.293l.022-.1c.046-.212.1-.439.16-.683q.072-.286.129-.55c0-.061.008-.128.016-.2a1.219,1.219,0,0,1,.115-.4c.015-.169-.124-.193-.218-.193l-2.5.1c.071.018.157.021.174.091-.086-.053-.183.052-.2-.09l-.37.015c.049.015.1.07.169.075-.015.066-.089.07-.151.044-.014.008-.02.017.015.051a.761.761,0,0,0-.222-.162l-3.247.13a.5.5,0,0,0-.29.893l2.982,2.355c.01-.018.015-.041.042-.042a.205.205,0,0,0,0,.075l2.27,1.792C5.475,19.586,5.444,19.551,5.456,19.474Zm.535-4.134c.2.084.425.148.636.224-.074.1-.106.041-.034.16-.09.063-.252.058-.234.225-.049-.062-.343-.336-.435-.129-.08.013.019-.146-.1-.1A.461.461,0,0,1,5.991,15.34ZM5.824,18c.073-.006.106.026.1.1-.115-.067-.061.042-.1.1C5.75,18.179,5.8,18.022,5.824,18Zm.167,1.314c-.02.029-.04.058,0,.064-.01.107-.158-.1-.133.064-.045-.075-.231-.014-.235-.128C5.681,19.274,5.845,19.339,5.991,19.314ZM2.648,15.692c-.008.046-.1.012-.1.064.055.011.089.075.2.033.051.134-.174,0-.168.1-.081-.019-.074-.121-.1-.193ZM.976,15.115c.061,0,.071-.039.134-.032,0,.058.041.068.034.128C1.058,15.208.972,15.205.976,15.115Zm.5,1.09c-.059.009-.1-.151-.134-.064-.055-.062.062-.106.167-.064C1.526,16.144,1.489,16.162,1.478,16.2Zm.2-1.026c-.112.022-.122-.053-.133-.128h.133Zm-.133-.416c.059-.028.1-.1.167-.032C1.762,14.827,1.538,14.815,1.544,14.763Zm.369,2.051v-.128c.1.016.13-.07.2,0C2.109,16.788,2.038,16.827,1.913,16.814Zm.267-.1c-.028-.1.029-.122.067-.16C2.306,16.565,2.261,16.738,2.18,16.718Zm.467-.16H2.48c-.068-.141,0-.258-.034-.385.2.03-.005.244.134.32.12-.026-.008-.165.067-.192C2.733,16.362,2.688,16.459,2.647,16.558Zm.068-.545c-.037.007-.05-.008-.057-.029a.1.1,0,0,0-.045.093c.026.007.066,0,.067.032H2.547c-.039-.125.092-.251.167-.16l-.021.013c.147.046.295.026.323.243-.054.009-.058-.03-.1-.032-.034.021-.035.074-.1.064C2.805,16.14,2.624,16.109,2.715,16.013Zm.333.48c-.082-.018-.172-.027-.167-.128C2.96,16.385,3.037,16.408,3.048,16.493Zm-.3.738a.161.161,0,0,1,.133.16A.128.128,0,0,1,2.749,17.231Zm.033-.609c-.015-.077.306-.078.267.064C2.943,16.681,2.9,16.613,2.782,16.622Zm1.4-.417c-.058.03-.055.118-.167.1C4.044,16.232,4.1,16.122,4.186,16.2ZM3.349,14.8c.02.086-.1.2-.134.128C3.283,14.9,3.225,14.761,3.349,14.8Zm-.134.641c.045-.01.064-.046.134-.032.006.091,0,.175-.1.16C3.256,15.5,3.211,15.493,3.215,15.436Zm.067.865c.063-.007.074.037.134.032.033.1-.075.057-.134.065Zm.168,1.218c-.091.024-.067-.063-.133-.064.008-.056.057-.073.133-.064Zm.6.161c-.132.023-.234-.085-.334-.033C3.737,17.445,4.208,17.365,4.051,17.68Zm.167.576c-.053.024.008.157-.1.129-.028-.091.047-.083.033-.161.083,0,.162-.006.167.065A.164.164,0,0,1,4.218,18.256Zm1.339-3.237v.128c-.089.01-.11-.044-.1-.128ZM4.888,18.8c.1.055.169-.009.233.032-.023-.107.056-.117.133-.128.016.1-.029.143-.133.128h0C5.118,18.932,4.891,18.892,4.888,18.8Zm.233.225c-.037-.173.193-.054.2-.065C5.278,19.006,5.163,18.981,5.121,19.026Zm.168-1.956c-.081-.081.034-.156.067-.224C5.48,16.871,5.408,17.086,5.289,17.07Zm.234,1.315c.075.023.016.182-.067.16C5.387,18.481,5.481,18.432,5.523,18.385Z"/><path d="M3.984,14.474c-.06.049-.1.017-.129-.033h0c-.008.051.034.089.083.109C3.955,14.54,4,14.535,3.984,14.474Z"/><path d="M3.851,14.435l0,.006c.009-.008.019-.006.028-.008Z"/></svg>