<svg id="d6b31a3d-06f8-4e1f-a13b-51aed6419d26" data-name="Layer 1" xmlns="http://www.w3.org/2000/svg" width="27px" height="27px" viewBox="0 0 10.167 8.132"><title>favor</title><path fill="#000" id="favor" d="M2.113,1.725A4.292,4.292,0,0,1,2.321.288,1.841,1.841,0,0,1,2.4.111.174.174,0,0,1,2.594,0,4.906,4.906,0,0,1,4.252.545a1.918,1.918,0,0,1,.412.31.077.077,0,0,0,.09.02A1.589,1.589,0,0,1,5.8.89c.023.008.042.017.066,0A3.188,3.188,0,0,1,7.118.258,6.511,6.511,0,0,1,7.837.093.2.2,0,0,1,8.1.232a3.023,3.023,0,0,1,.231.911,4.7,4.7,0,0,1-.07,1.577,2.367,2.367,0,0,1-.174.532.181.181,0,0,1-.215.114,5.438,5.438,0,0,1-1.4-.411,2.389,2.389,0,0,1-.549-.344.076.076,0,0,0-.1-.01,1.245,1.245,0,0,1-1.1.015.225.225,0,0,1-.1-.077c-.019-.028-.033-.033-.063-.008a3.289,3.289,0,0,1-1.213.587,6.872,6.872,0,0,1-.682.156c-.166.031-.229,0-.294-.156a3.27,3.27,0,0,1-.222-.913A4.039,4.039,0,0,1,2.113,1.725Zm.368-.083c0,.076,0,.152,0,.228a3.511,3.511,0,0,0,.166.97c.015.045.03.065.083.05.078-.022.159-.033.237-.052a3.748,3.748,0,0,0,1.189-.464,1.344,1.344,0,0,0,.4-.369c.015-.024.041-.05.025-.08S4.529,1.91,4.5,1.91c-.194,0-.389,0-.583,0a.17.17,0,0,1-.168-.121.174.174,0,0,1,.05-.195.212.212,0,0,1,.157-.049h.561c.022,0,.06.013.059-.023,0-.087.023-.175-.038-.256A1.527,1.527,0,0,0,4.13.9,4.206,4.206,0,0,0,2.721.4C2.667.384,2.659.414,2.647.45A3.649,3.649,0,0,0,2.481,1.642ZM8,1.73c0-.064,0-.128,0-.192A3.552,3.552,0,0,0,7.831.531C7.817.486,7.8.47,7.748.481a5.527,5.527,0,0,0-.913.258,2.183,2.183,0,0,0-.83.522.262.262,0,0,0-.079.2c0,.06.015.08.078.079.2,0,.408,0,.613,0a.182.182,0,0,1,.2.192.179.179,0,0,1-.191.174H6c-.024,0-.063-.014-.064.028a.285.285,0,0,0,.044.223,1.8,1.8,0,0,0,.505.39,4.554,4.554,0,0,0,1.275.423c.058.012.066-.02.079-.06A3.71,3.71,0,0,0,8,1.73Z"/><path d="M10.167,8.084H9.582c-.035,0-.04-.024-.046-.047a.812.812,0,0,1-.033-.2q0-.407-.007-.813a1,1,0,0,0-.027-.256.3.3,0,0,0-.289-.241c-.074-.006-.148,0-.222-.006-.054,0-.064.017-.064.067,0,.47,0,.94,0,1.411,0,.064-.014.084-.081.081-.152-.005-.305,0-.458,0-.055,0-.069-.014-.069-.07,0-.386,0-.773,0-1.159q0-1.26,0-2.519c0-.061.009-.084.078-.083.3.005.591,0,.887,0a1.155,1.155,0,0,1,.341.051.642.642,0,0,1,.476.555,2.69,2.69,0,0,1-.006.868.637.637,0,0,1-.321.463.2.2,0,0,0-.026.021c.039.025.078.047.112.073a.721.721,0,0,1,.262.548c.022.229.007.458.01.687A1.51,1.51,0,0,0,10.167,8.084ZM8.9,5.386c0,.177,0,.354,0,.531,0,.042.007.064.056.061.081,0,.162,0,.243-.006a.27.27,0,0,0,.28-.244,2.583,2.583,0,0,0,0-.669c-.02-.185-.12-.255-.307-.256-.069,0-.138,0-.207,0-.053,0-.072.01-.071.068C8.9,5.042,8.9,5.214,8.9,5.386Z"/><path d="M6.064,6.05c.008-.295-.013-.662.01-1.028a.823.823,0,0,1,.845-.81,1.217,1.217,0,0,1,.444.059A.8.8,0,0,1,7.89,5a2.585,2.585,0,0,1,.012.317q0,.912,0,1.824a1.357,1.357,0,0,1-.054.415.753.753,0,0,1-.556.538,1.18,1.18,0,0,1-.656-.012.771.771,0,0,1-.545-.645A1.746,1.746,0,0,1,6.064,7.1Zm.606.139h0c0,.187,0,.374,0,.561s-.009.369.007.554a.307.307,0,0,0,.609.01A1.2,1.2,0,0,0,7.3,7.167q0-1,0-2.009A.873.873,0,0,0,7.283,5a.305.305,0,0,0-.6-.011.86.86,0,0,0-.016.176Q6.669,5.679,6.67,6.189Z"/><path d="M2.72,4.256c.125,0,.251,0,.376,0,.051,0,.065.015.073.063.065.418.133.835.2,1.252l.273,1.7c.041.253.081.5.123.757.007.045-.007.055-.049.054-.165,0-.33,0-.5,0-.054,0-.065-.023-.071-.067-.026-.185-.055-.37-.08-.555-.007-.054-.024-.077-.086-.076-.2.005-.4.005-.6,0-.06,0-.074.024-.081.075-.024.18-.053.359-.077.54-.008.058-.025.087-.094.084-.138-.007-.276,0-.414,0-.046,0-.063,0-.054-.06.075-.451.147-.9.219-1.354l.273-1.7c.035-.219.071-.437.1-.655.006-.043.021-.058.066-.057C2.459,4.258,2.589,4.256,2.72,4.256Zm-.029.725-.013,0c-.091.61-.181,1.22-.275,1.83-.007.05,0,.058.05.057.15,0,.3,0,.45,0,.064,0,.072-.019.063-.077-.069-.445-.135-.89-.2-1.335C2.74,5.3,2.716,5.141,2.691,4.981Z"/><path d="M4.834,7.319l.117-.786.258-1.751c.023-.153.047-.306.067-.46.006-.047.017-.068.07-.067.145,0,.291,0,.436,0,.044,0,.061.007.053.056q-.114.729-.226,1.458-.13.834-.259,1.668c-.03.2-.061.394-.09.591-.006.041-.023.056-.067.056-.263,0-.527,0-.79,0-.054,0-.059-.027-.065-.064q-.086-.546-.169-1.093L3.938,5.441q-.087-.568-.176-1.136c-.007-.045.008-.049.044-.049.17,0,.34,0,.51,0,.042,0,.053.014.059.053q.183,1.263.371,2.525c.024.162.049.325.074.487Z"/><path d="M.8,4.256c.243,0,.487,0,.731,0,.052,0,.073.009.071.068-.005.137-.005.275,0,.413,0,.059-.021.069-.072.068-.283,0-.567,0-.85,0C.62,4.8.6,4.816.605,4.875c0,.337,0,.675,0,1.012,0,.054.011.071.068.07.217,0,.434,0,.651,0,.047,0,.064.012.063.062,0,.14,0,.28,0,.421,0,.051-.014.067-.066.066-.209,0-.419,0-.628,0-.08,0-.09.025-.089.094,0,.471,0,.941,0,1.411,0,.058-.01.082-.075.079-.15-.006-.3-.006-.451,0C.009,8.089,0,8.061,0,8c0-.615,0-1.231,0-1.846S0,4.935,0,4.327c0-.06.017-.073.074-.072C.315,4.258.556,4.256.8,4.256Z"/>
</svg>
