<svg id="fc7afb9b-2ef1-4af9-957b-6bc3e9c8390d" data-name="Layer 1" xmlns="http://www.w3.org/2000/svg" width="0.12in" height="0.12in" viewBox="0 0 8.673 8.673"><title>inst</title><path fill="#000" id="inst" d="M5.782,4.337A1.446,1.446,0,0,0,4.337,2.891,1.448,1.448,0,0,0,2.891,4.337,1.446,1.446,0,0,0,4.337,5.782,1.444,1.444,0,0,0,5.782,4.337Zm.779,0A2.216,2.216,0,0,1,4.337,6.561,2.216,2.216,0,0,1,2.112,4.337,2.216,2.216,0,0,1,4.337,2.112,2.216,2.216,0,0,1,6.561,4.337Zm.61-2.315a.52.52,0,1,1-.886-.368.519.519,0,0,1,.886.368ZM4.337.779l-.432,0c-.262,0-.46,0-.6,0s-.317.008-.545.017A4.616,4.616,0,0,0,2.182.85a2.269,2.269,0,0,0-.4.1,1.484,1.484,0,0,0-.825.825,2.269,2.269,0,0,0-.1.4,4.616,4.616,0,0,0-.057.582c-.009.228-.015.409-.017.545s0,.334,0,.6,0,.4,0,.432,0,.17,0,.432,0,.46,0,.595.008.318.017.545a4.616,4.616,0,0,0,.057.582,2.3,2.3,0,0,0,.1.4,1.48,1.48,0,0,0,.328.5,1.453,1.453,0,0,0,.5.327,2.351,2.351,0,0,0,.4.1,4.455,4.455,0,0,0,.582.056c.228.009.409.015.545.017s.334,0,.6,0l.432,0,.432,0c.261,0,.46,0,.595,0s.318-.008.545-.017a4.455,4.455,0,0,0,.582-.056,2.39,2.39,0,0,0,.4-.1A1.472,1.472,0,0,0,7.719,6.9a2.39,2.39,0,0,0,.1-.4,4.455,4.455,0,0,0,.056-.582c.009-.227.015-.409.017-.545s0-.334,0-.595,0-.406,0-.432,0-.171,0-.432,0-.46,0-.6-.008-.317-.017-.545a4.455,4.455,0,0,0-.056-.582,2.351,2.351,0,0,0-.1-.4,1.453,1.453,0,0,0-.327-.5A1.48,1.48,0,0,0,6.9.954a2.3,2.3,0,0,0-.4-.1A4.616,4.616,0,0,0,5.909.793C5.682.784,5.5.778,5.364.776s-.334,0-.595,0ZM8.673,4.337q0,1.293-.028,1.79a2.65,2.65,0,0,1-.7,1.818,2.65,2.65,0,0,1-1.818.7q-.5.029-1.79.028t-1.79-.028a2.655,2.655,0,0,1-1.819-.7,2.65,2.65,0,0,1-.7-1.818Q0,5.629,0,4.337t.028-1.79A2.655,2.655,0,0,1,.728.728a2.655,2.655,0,0,1,1.819-.7Q3.044,0,4.337,0t1.79.028a2.65,2.65,0,0,1,1.818.7,2.655,2.655,0,0,1,.7,1.819Q8.674,3.044,8.673,4.337Z"/></svg>
