<svg id="204d1238-f7a3-48d6-84de-b040b874b5e3" data-name="Layer 1" xmlns="http://www.w3.org/2000/svg" width="112" height="66.508" viewBox="0 0 112 66.508"><title>map-newLocation</title><polygon points="33.75 11.754 33.75 11.754 33.75 0 0 33.254 0 33.254 0 33.254 0 33.254 33.75 66.508 33.75 54.754 112 54.754 112 11.754 33.75 11.754"/>
<path d="M48.851,19.791a.318.318,0,0,1,.322-.3H49.6l6.782,6.527H56.4V19.978a.323.323,0,0,1,.323-.323h2.04a.333.333,0,0,1,.322.323v11.44a.319.319,0,0,1-.322.306h-.272a.5.5,0,0,1-.221-.085l-6.715-6.748h-.017v6.34a.323.323,0,0,1-.323.323H49.19a.334.334,0,0,1-.322-.323Z" fill="#fff"/><path d="M62.858,19.978a.323.323,0,0,1,.323-.323h7.038a.323.323,0,0,1,.323.323v1.853a.323.323,0,0,1-.323.323H65.51v2.108h3.876a.333.333,0,0,1,.322.322v1.854a.322.322,0,0,1-.322.322H65.51v2.295h4.709a.323.323,0,0,1,.323.323v1.853a.323.323,0,0,1-.323.323H63.181a.323.323,0,0,1-.323-.323Z" fill="#fff"/>
<path d="M72.617,20.063a.3.3,0,0,1,.3-.408h1.989a.349.349,0,0,1,.306.238l1.462,5.762h.068l2.635-5.983a.323.323,0,0,1,.289-.186h.306a.288.288,0,0,1,.289.186L82.9,25.655h.068l1.462-5.762a.349.349,0,0,1,.306-.238h1.989a.3.3,0,0,1,.306.408L83.818,31.486a.327.327,0,0,1-.306.238H83.24a.344.344,0,0,1-.288-.187l-3.111-6.953H79.79L76.7,31.537a.345.345,0,0,1-.289.187h-.272a.327.327,0,0,1-.306-.238Z" fill="#fff"/>
<path d="M30.22,37.015a.266.266,0,0,1,.266-.267h1.667a.276.276,0,0,1,.266.267v7.479h3.334a.267.267,0,0,1,.266.267v1.526a.266.266,0,0,1-.266.267H30.486a.266.266,0,0,1-.266-.267Z" fill="#fff"/>
<path d="M42.612,36.609a5.043,5.043,0,1,1-5.029,5.056A5.032,5.032,0,0,1,42.612,36.609Zm0,7.843a2.8,2.8,0,1,0-2.788-2.787A2.806,2.806,0,0,0,42.612,44.452Z" fill="#fff"/>
<path d="M54.666,36.609a4.709,4.709,0,0,1,3.39,1.3.261.261,0,0,1,.013.393l-1.092,1.134a.246.246,0,0,1-.351,0,2.86,2.86,0,0,0-1.89-.714,2.866,2.866,0,0,0,.014,5.728,2.953,2.953,0,0,0,1.876-.672.278.278,0,0,1,.365.014l1.092,1.163a.279.279,0,0,1-.014.378,4.8,4.8,0,0,1-3.4,1.359,5.043,5.043,0,1,1,0-10.085Z" fill="#fff"/>
<path d="M59.464,46.19l4.385-9.427a.284.284,0,0,1,.238-.154h.14a.284.284,0,0,1,.238.154L68.85,46.19a.247.247,0,0,1-.239.364H67.057c-.253,0-.365-.084-.491-.351l-.5-1.106h-3.81l-.5,1.121a.522.522,0,0,1-.5.336H59.7A.248.248,0,0,1,59.464,46.19Zm5.758-3-1.065-2.311h-.014l-1.051,2.311Z" fill="#fff"/>
<path d="M71.73,38.808h-2a.266.266,0,0,1-.266-.267V37.015a.266.266,0,0,1,.266-.267h6.219a.266.266,0,0,1,.266.267v1.526a.266.266,0,0,1-.266.267h-2v7.479a.276.276,0,0,1-.266.267H72a.276.276,0,0,1-.266-.267Z" fill="#fff"/>
<path d="M78.589,37.015a.276.276,0,0,1,.266-.267h1.681a.276.276,0,0,1,.266.267v9.272a.276.276,0,0,1-.266.267H78.855a.276.276,0,0,1-.266-.267Z" fill="#fff"/><path d="M88.5,36.609a5.043,5.043,0,1,1-5.028,5.056A5.033,5.033,0,0,1,88.5,36.609Zm0,7.843a2.8,2.8,0,1,0-2.787-2.787A2.807,2.807,0,0,0,88.5,44.452Z" fill="#fff"/><path d="M96.2,36.861a.263.263,0,0,1,.266-.252h.35l5.589,5.378h.014V37.015a.266.266,0,0,1,.267-.267h1.68a.276.276,0,0,1,.266.267v9.427a.263.263,0,0,1-.266.252h-.224a.413.413,0,0,1-.182-.07l-5.533-5.561h-.014v5.224a.266.266,0,0,1-.266.267H96.481a.276.276,0,0,1-.266-.267Z" fill="#fff"/>
</svg>
