<?xml version="1.0" encoding="iso-8859-1"?>
<!-- Generator: Adobe Illustrator 19.0.0, SVG Export Plug-In . SVG Version: 6.00 Build 0)  -->
<svg version="1.1" id="Layer_1" xmlns="http://www.w3.org/2000/svg" xmlns:xlink="http://www.w3.org/1999/xlink" x="0px" y="0px"
	 viewBox="0 0 455 455" style="enable-background:new 0 0 455 455;" xml:space="preserve">
<path fill="#000" d="M227.5,0C101.855,0,0,101.855,0,227.5S101.855,455,227.5,455S455,353.145,455,227.5S353.145,0,227.5,0z M303.514,146.486
	c19.33,0,35,15.67,35,35s-15.67,35-35,35c-19.33,0-35-15.67-35-35S284.184,146.486,303.514,146.486z M151.486,146.486
	c19.33,0,35,15.67,35,35s-15.67,35-35,35c-19.33,0-35-15.67-35-35S132.156,146.486,151.486,146.486z M227.5,370
	c-59.42,0-113.171-37.504-133.752-93.325l28.148-10.378C138.15,310.381,180.589,340,227.5,340s89.35-29.619,105.604-73.703
	l28.148,10.378C340.671,332.496,286.92,370,227.5,370z"/>
<g>
</g>
<g>
</g>
<g>
</g>
<g>
</g>
<g>
</g>
<g>
</g>
<g>
</g>
<g>
</g>
<g>
</g>
<g>
</g>
<g>
</g>
<g>
</g>
<g>
</g>
<g>
</g>
<g>
</g>
</svg>
