<svg id="19438d17-c592-440c-a657-e89135267a94" data-name="Layer 1" xmlns="http://www.w3.org/2000/svg" width="27px" height="27px" viewBox="0 0 10.006 8.13"><title>twit</title><path id="twit" fill="#000" d="M10.006.958a4.4,4.4,0,0,1-1.182.332A2,2,0,0,0,9.732.147a4.1,4.1,0,0,1-1.309.5A1.95,1.95,0,0,0,6.928,0,1.976,1.976,0,0,0,5.477.6a1.976,1.976,0,0,0-.6,1.451,1.863,1.863,0,0,0,.049.469A5.811,5.811,0,0,1,2.56,1.886,5.824,5.824,0,0,1,.684.371,2.032,2.032,0,0,0,.4,1.407a1.934,1.934,0,0,0,.889,1.71,2.409,2.409,0,0,1-.977-.254v.02A1.954,1.954,0,0,0,.8,4.187,2.054,2.054,0,0,0,2,4.895a1.874,1.874,0,0,1-.5.079,2.747,2.747,0,0,1-.381-.039,2.085,2.085,0,0,0,.728,1.016,1.945,1.945,0,0,0,1.187.41,4.058,4.058,0,0,1-2.55.88A3.845,3.845,0,0,1,0,7.211a5.751,5.751,0,0,0,3.146.919A5.982,5.982,0,0,0,5.2,7.783,5.287,5.287,0,0,0,6.84,6.855,6.169,6.169,0,0,0,8.017,5.516,5.919,5.919,0,0,0,8.99,2.287c0-.118,0-.206-.01-.264A4,4,0,0,0,10.006.958Z"/></svg>
